<svg xmlns="http://www.w3.org/2000/svg" viewBox="0 0 800 600"><defs><style>.cls-1{fill:#b5f7f5;}.cls-2{fill:#fce0c3;}.cls-11,.cls-3,.cls-7{fill:none;}.cls-10,.cls-14,.cls-16,.cls-17,.cls-18,.cls-19,.cls-3,.cls-7{stroke:#fff;}.cls-10,.cls-11,.cls-12,.cls-14,.cls-16,.cls-17,.cls-18,.cls-19,.cls-3,.cls-7{stroke-miterlimit:10;}.cls-12,.cls-3{stroke-width:2px;}.cls-4{fill:#fff;}.cls-5{fill:#ff1d25;}.cls-6{fill:#f2f2f2;}.cls-8{fill:#8c6239;}.cls-9{fill:#fbb03b;}.cls-10{fill:#fc5185;}.cls-11{stroke:#17404f;}.cls-12{fill:#603813;stroke:#42210b;}.cls-13{fill:#42210b;}.cls-14{fill:#09c;}.cls-15{fill:#bdccd4;}.cls-16{font-size:42.98px;}.cls-16,.cls-17,.cls-18{font-family:ChalkboardSE-Bold, Chalkboard SE;font-weight:700;}.cls-17{font-size:59.55px;}.cls-18{font-size:84.89px;}.cls-20{fill:gray;}</style></defs><title>BeachApril</title><g id="Layer_3" data-name="Layer 3"><path class="cls-1" d="M523.15,534.44c0,2.38.39,4.92,3,6.78,4.48,3.19,13.08,3,20.25,2.4a711.3,711.3,0,0,0,112.92-18.35c45.91-11.44,92-27.74,140.65-29.8l.5,105H.5L0,535a354.64,354.64,0,0,1,69.87-10.36c18.69-.91,43.09,2.11,45.61,12.51,1.25,5.13-3.81,10.51-.81,15.42,4.54,7.39,22.62,8.06,36.46,6.95a654.49,654.49,0,0,0,123.53-21.6c32.88-9.2,63.43-20.89,96.83-29.48s71.06-14,107-9.63c18.7,2.29,38.06,8.31,43.4,18.58C524.72,522.88,523.14,528.73,523.15,534.44Z"/><path class="cls-2" d="M800-25V495.47c-48.63,2.06-94.74,18.36-140.65,29.8a711.3,711.3,0,0,1-112.92,18.35c-7.17.59-15.77.79-20.25-2.4-2.64-1.86-3-4.4-3-6.78,0-5.71,1.57-11.56-1.28-17.05-5.34-10.27-24.7-16.29-43.4-18.58-35.92-4.38-73.58,1-107,9.63s-63.95,20.28-96.83,29.48a654.49,654.49,0,0,1-123.53,21.6c-13.84,1.11-31.92.44-36.46-6.95-3-4.91,2.06-10.29.81-15.42-2.52-10.4-26.92-13.42-45.61-12.51A354.64,354.64,0,0,0,0,535V-25Z"/><polyline class="cls-3" points="0 535 0 -25 800 -25 800 495.47"/><path class="cls-3" d="M800,495.47l.5,105H.5L0,535a354.64,354.64,0,0,1,69.87-10.36c18.69-.91,43.09,2.11,45.61,12.51,1.25,5.13-3.81,10.51-.81,15.42,4.54,7.39,22.62,8.06,36.46,6.95a654.49,654.49,0,0,0,123.53-21.6c32.88-9.2,63.43-20.89,96.83-29.48s71.06-14,107-9.63c18.7,2.29,38.06,8.31,43.4,18.58,2.85,5.49,1.27,11.34,1.28,17.05,0,2.38.39,4.92,3,6.78,4.48,3.19,13.08,3,20.25,2.4a711.3,711.3,0,0,0,112.92-18.35C705.26,513.83,751.37,497.53,800,495.47Z"/></g><g id="Layer_1" data-name="Layer 1"><path class="cls-4" d="M407.39,419.48a23.06,23.06,0,0,0-7.7.16,22.41,22.41,0,0,0-9.8,4.22l-.32.26L147.91-81.28a9.2,9.2,0,0,1,4.33-12.28,9.2,9.2,0,0,1,12.28,4.33l242.1,506.31A9.86,9.86,0,0,1,407.39,419.48Z"/><path class="cls-5" d="M133.55-109.53,338.26-23.34c-37.35-2.45-153.46,63.72-160,104.92Z"/><path class="cls-6" d="M133.55-109.53l44.7,191.11C128.66,71.18,74,77.21,21,100.31Z"/><path class="cls-6" d="M133.55-109.53,21,100.31C44.69,28,84.17-41.58,133.55-109.53Z"/><path class="cls-5" d="M-131.5-22.21l265.05-87.32C84.17-41.58,44.69,28,21,100.31-15.91,58.94-76.63,70.14-140.3,64.84-151.48,63.91-129.39-11.39-131.5-22.21Z"/><path class="cls-7" d="M385.37,433.14c-.57-3.2,1.1-6.46,4.2-9l.32-.26a22.41,22.41,0,0,1,9.8-4.22,23.06,23.06,0,0,1,7.7-.16,15.57,15.57,0,0,1,2,.38c4.51,1.14,7.8,3.79,8.46,7.35"/><path class="cls-8" d="M715.64,472.65a6,6,0,0,1-.1,1.34,14.52,14.52,0,0,0-5.42,0,13.65,13.65,0,0,0-7.07,3.44,7.12,7.12,0,0,1-1.68-4.38l-.8-27.53H466.68l-.8,27.53a6.55,6.55,0,0,1-.3,1.83,14.35,14.35,0,0,0-6.12-.14,14.13,14.13,0,0,0-6.19,2.66,7.05,7.05,0,0,1-1.66-4.76l5-173.24L467,378h19.11a78.88,78.88,0,0,0-5,12.28H468.28l-1.24,43H700.22l-1.24-43H686.17A94.3,94.3,0,0,0,681.56,378h18.25l10.74-81.58Z"/><path class="cls-8" d="M714.9,262.77a7.32,7.32,0,0,1,0,.81l-4.31,32.83L699.81,378H687.74l8.92-67.81L703,262a6,6,0,0,1,6.4-5.19l.32,0A6,6,0,0,1,714.9,262.77Z"/><path class="cls-8" d="M705.35,117.14l4,139.69A6,6,0,0,0,703,262l-6.33,48.16-4.87-168H667.85c.36-4.16.75-8.27,1.13-12.28h22.46l-.36-12.38a7.14,7.14,0,0,1,6.93-7.33h.22A7.13,7.13,0,0,1,705.35,117.14Z"/><path class="cls-8" d="M698.2,390.27l-1.83,13.9a6,6,0,0,1-.65,2,10.31,10.31,0,0,0-6.49-.73,11.65,11.65,0,0,0-3.71,1.32,6,6,0,0,1-1-4.19l1.62-12.34H698.2Z"/><path class="cls-9" d="M686.17,390.27H481.09a78.88,78.88,0,0,1,5-12.28c8.68-18.25,25-46.39,27.73-60.33a57.89,57.89,0,0,0,.84-16.92c-2.4-24.27-9.46-96.16-15.23-158.53q-.57-6.21-1.13-12.28H669c-.38,4-.77,8.12-1.13,12.28-5.69,62.31-11.45,138.09-13.12,160.48a55.56,55.56,0,0,0,.55,13.07c2.1,13.07,17.91,42.89,26.28,62.23A94.3,94.3,0,0,1,686.17,390.27Z"/><path class="cls-8" d="M499.41,142.21h-24l-4.95,170.94-6.24-47.45a6,6,0,0,0-6.52-5.18l4.15-143.38a7.13,7.13,0,0,1,7.13-6.92h.22a7.13,7.13,0,0,1,6.92,7.33l-.35,12.38h22.46Q498.84,136,499.41,142.21Z"/><path class="cls-8" d="M482.76,406.3a5.75,5.75,0,0,1-.34,2.87,11.91,11.91,0,0,0-4.42,0,10.86,10.86,0,0,0-5.18,2.36,6,6,0,0,1-1.93-3.66l-2.31-17.59h12.06Z"/><path class="cls-8" d="M470.51,313.15,479,378H467l-10.34-78.58-4.22-32.15a5.32,5.32,0,0,1,0-.79,6,6,0,0,1,5.21-5.93l.19,0a6,6,0,0,1,6.52,5.18Z"/><path class="cls-8" d="M362,471.42v.14a14.65,14.65,0,0,0-5.53,0,13.16,13.16,0,0,0-7.57,4,7,7,0,0,1-1.17-3.71l-.8-27.52H113l-.8,27.52c0,.23,0,.45-.06.67a14.34,14.34,0,0,0-6.37-.21,13.84,13.84,0,0,0-6.73,3.14,7,7,0,0,1-1.11-4l5-173.24,10.34,78.58H132.4a78.75,78.75,0,0,0-5,12.29H114.6l-1.24,43H346.54l-1.24-43H332.49a95.54,95.54,0,0,0-4.6-12.29h18.25l10.73-81.57Z"/><path class="cls-8" d="M361.23,261.54a5.51,5.51,0,0,1-.05.81l-4.31,32.84-10.73,81.57H334.06L343,309l6.34-48.16a6,6,0,0,1,6.4-5.18l.31,0A6,6,0,0,1,361.23,261.54Z"/><path class="cls-8" d="M351.67,115.92l4.05,139.69a6,6,0,0,0-6.4,5.18L343,309l-4.86-168H314.17q.56-6.24,1.13-12.28h22.46l-.35-12.38a7.13,7.13,0,0,1,6.92-7.33h.22A7.12,7.12,0,0,1,351.67,115.92Z"/><path class="cls-8" d="M344.53,389.05,342.7,403a7.28,7.28,0,0,1-.24,1.05,10,10,0,0,0-6.91-1,11.07,11.07,0,0,0-4.22,1.65,6,6,0,0,1-.51-3.28l1.62-12.34h12.09Z"/><path class="cls-9" d="M332.49,389.05H127.41a78.75,78.75,0,0,1,5-12.29c8.68-18.24,24.95-46.39,27.73-60.33a58.22,58.22,0,0,0,.83-16.92c-2.39-24.27-9.46-96.16-15.23-158.53q-.57-6.21-1.13-12.28H315.3q-.57,6-1.13,12.28c-5.69,62.31-11.44,138.09-13.11,160.48a55,55,0,0,0,.55,13.07c2.1,13.08,17.9,42.89,26.28,62.23A95.54,95.54,0,0,1,332.49,389.05Z"/><path class="cls-8" d="M145.73,141H121.79l-5,170.94-6.24-47.45a6,6,0,0,0-6.52-5.18l4.15-143.37a7.13,7.13,0,0,1,7.12-6.93h.22a7.14,7.14,0,0,1,6.93,7.33l-.36,12.38H144.6Q145.16,134.76,145.73,141Z"/><path class="cls-8" d="M129.08,405.07a6.18,6.18,0,0,1,0,1.72,11.66,11.66,0,0,0-4.73-.09,10.37,10.37,0,0,0-5.79,3,5.8,5.8,0,0,1-1.32-3l-2.31-17.58H127Z"/><path class="cls-8" d="M116.84,311.92l8.52,64.84H113.29L103,298.18,98.72,266a7.11,7.11,0,0,1,0-.78,6,6,0,0,1,5.21-5.94l.2,0a6,6,0,0,1,6.52,5.18Z"/><path class="cls-7" d="M367.9,476.32c-.44-2.39-2.78-4.14-5.93-4.76a14.65,14.65,0,0,0-5.53,0,13.16,13.16,0,0,0-7.57,4,5.52,5.52,0,0,0-1.46,4.53"/><path class="cls-7" d="M117.24,477.07c-.4-2.17-2.37-3.82-5.09-4.57a14.34,14.34,0,0,0-6.37-.21,13.84,13.84,0,0,0-6.73,3.14c-1.74,1.56-2.65,3.5-2.3,5.39"/><path class="cls-7" d="M133.3,410.44c-.31-1.78-2-3.1-4.24-3.65a11.66,11.66,0,0,0-4.73-.09,10.37,10.37,0,0,0-5.79,3,4.4,4.4,0,0,0-1.29,3.71"/><path class="cls-7" d="M344.53,406.75a4.15,4.15,0,0,0-2.07-2.75,10,10,0,0,0-6.91-1,11.07,11.07,0,0,0-4.22,1.65c-2,1.32-3.18,3.19-2.85,5"/><path class="cls-7" d="M721.57,478.78c-.45-2.42-2.82-4.18-6-4.79a14.52,14.52,0,0,0-5.42,0,13.65,13.65,0,0,0-7.07,3.44,5.77,5.77,0,0,0-2,5.08"/><path class="cls-7" d="M470.92,479.53c-.42-2.25-2.5-3.92-5.34-4.64a14.35,14.35,0,0,0-6.12-.14,14.13,14.13,0,0,0-6.19,2.66c-2.09,1.65-3.23,3.77-2.85,5.86"/><path class="cls-7" d="M487,412.89c-.33-1.85-2.12-3.2-4.56-3.72a11.91,11.91,0,0,0-4.42,0,10.86,10.86,0,0,0-5.18,2.36,4.74,4.74,0,0,0-1.89,4.31"/><path class="cls-7" d="M698.2,409.21a4.32,4.32,0,0,0-2.48-3,10.31,10.31,0,0,0-6.49-.73,11.65,11.65,0,0,0-3.71,1.32c-2.35,1.34-3.74,3.37-3.37,5.34"/></g><g id="Layer_2" data-name="Layer 2"><path class="cls-10" d="M318.52,290.58c0,47.5-37.75,64.69-85.25,64.69s-86.77-17.19-86.77-64.69a86,86,0,1,1,172,0Z"/><path class="cls-11" d="M178,277.35l7.52,14a5.94,5.94,0,0,1-4.68,8.73l-11.76,1.09"/><path class="cls-11" d="M234.84,268a3.09,3.09,0,0,1-6.11,0"/><path class="cls-11" d="M241,268a3.09,3.09,0,0,1-6.11,0"/><path class="cls-12" d="M227.68,246.69c-1,6.25-7.35,12.06-14.21,13.6-7.66,1.71-14.22-5.75-14.22-13.6,0-14.22,6.37-14.22,14.22-14.22C225.83,232.47,229,238.94,227.68,246.69Z"/><path class="cls-12" d="M242.05,246.87c1,6.25,7.35,12.06,14.22,13.6,7.66,1.71,14.21-5.75,14.21-13.6,0-14.22-6.36-14.22-14.21-14.22C243.9,232.65,240.78,239.12,242.05,246.87Z"/><rect class="cls-13" x="227.07" y="240.81" width="15.45" height="2.47"/><path class="cls-14" d="M669.74,290.58c0,47.5-37.75,64.69-85.25,64.69s-86.77-17.19-86.77-64.69a86,86,0,1,1,172,0Z"/><path class="cls-11" d="M523.1,277.35l7.52,14a5.94,5.94,0,0,1-4.68,8.73l-11.76,1.09"/><path class="cls-11" d="M635.4,277.35l-7.52,14a5.94,5.94,0,0,0,4.68,8.73l11.76,1.09"/><path class="cls-12" d="M560.56,242.7c-.21,6.33-5.73,12.91-12.34,15.33-7.37,2.69-14.84-3.86-15.86-11.65-1.84-14.09,4.47-14.92,12.26-15.93C556.88,228.85,560.82,234.86,560.56,242.7Z"/><path class="cls-12" d="M574.83,241c1.82,6.07,8.85,11,15.85,11.64,7.82.72,13.36-7.54,12.34-15.32-1.84-14.1-8.15-13.27-15.94-12.26C574.82,226.68,572.56,233.5,574.83,241Z"/><rect class="cls-13" x="559.28" y="235.95" width="15.45" height="2.47" transform="translate(-25.94 75.42) rotate(-7.44)"/><path class="cls-11" d="M575.08,260.51c.64,2.28-1.22,4.8-4.17,5.62s-5.84-.37-6.48-2.65c0-.06,0-.12,0-.19a1.56,1.56,0,0,1,2-1.78,6.89,6.89,0,0,0,6.07-1.69,1.56,1.56,0,0,1,2.6.51Z"/><path class="cls-15" d="M566.43,266.86c0,1.35-.55,1.22-1.22,1.22s-1.23.13-1.23-1.22a1.54,1.54,0,1,1,2.45,0Z"/><text class="cls-16" transform="matrix(0.96, -0.26, 0.26, 0.96, 635.33, 196.84)">Z</text><text class="cls-17" transform="translate(673.05 161.1) rotate(-14.07)">Z</text><text class="cls-18" transform="translate(724.02 125.71) rotate(4.38)">Z</text><path class="cls-19" d="M273.58,272.77l-.46,2.77a5.91,5.91,0,0,0-7.87,5.71l.23,11-5.91-1a4,4,0,0,1-3.25-4.59l2.74-16.38a4,4,0,0,1,4.56-3.26l6.71,1.11A4,4,0,0,1,273.58,272.77Z"/><path class="cls-11" d="M265.49,293v-.73l-.23-11a5.91,5.91,0,0,1,7.87-5.71l.26.08,14.69,5.89"/><circle class="cls-20" cx="262.8" cy="271.46" r="1.54"/></g></svg>