<svg id="Layer_1" data-name="Layer 1" xmlns="http://www.w3.org/2000/svg" viewBox="0 0 800 600"><defs><style>.cls-1{fill:#fc5185;}.cls-2,.cls-5{fill:none;stroke:#17404f;stroke-miterlimit:10;}.cls-3{fill:#f90053;}.cls-4{fill:#ffee02;fill-opacity:0.5;}.cls-4,.cls-5{opacity:0.5;}.cls-6{font-size:71px;}.cls-13,.cls-6{fill:#17404f;font-family:ChalkboardSE-Regular, Chalkboard SE;}.cls-12,.cls-6{letter-spacing:0.01em;}.cls-7{letter-spacing:0em;}.cls-8{letter-spacing:-0.02em;}.cls-9{letter-spacing:0.02em;}.cls-10{letter-spacing:-0.01em;}.cls-11{letter-spacing:0.04em;}.cls-13{font-size:35px;letter-spacing:0.01em;}.cls-14{letter-spacing:0em;}.cls-15{letter-spacing:-0.02em;}.cls-16{letter-spacing:0.02em;}</style></defs><title>HiApril</title><path class="cls-1" d="M671,411.8c0,73.38-58.31,99.95-131.7,99.95s-134-26.57-134-99.95a132.88,132.88,0,1,1,265.75,0Z"/><circle cx="502.67" cy="320.49" r="9.41"/><circle cx="554.41" cy="320.49" r="9.41"/><path class="cls-2" d="M453.94,357.22l11.62,21.59a9.17,9.17,0,0,1-7.23,13.49L440.17,394"/><path class="cls-2" d="M624,359.83l-22.71-9.08a9.16,9.16,0,0,0-12.56,8.7l.39,18.18"/><path class="cls-2" d="M528.44,346.49a4.78,4.78,0,0,1-9.44,0"/><path class="cls-2" d="M538,346.49a4.78,4.78,0,0,1-9.44,0"/><ellipse class="cls-3" cx="485.5" cy="336" rx="9" ry="3.5"/><ellipse class="cls-3" cx="570" cy="336.5" rx="9" ry="3.5"/><path class="cls-4" d="M376,156.5C376,269.44,273.47,361,147,361a252.88,252.88,0,0,1-80.54-13c-10.14,13.54-27.83,22.51-48,22.51A66.32,66.32,0,0,1,5,369.12c18.11-3.78,32.84-15,39.56-29.68a228.26,228.26,0,0,1-70.37-48.76q-5.61-5.74-10.73-11.85C-65.09,244.71-82,202.37-82,156.5-82,43.56,20.53-48,147-48S376,43.56,376,156.5Z"/><path class="cls-5" d="M364,158.5C364,271.44,261.47,363,135,363a252.88,252.88,0,0,1-80.54-13c-10.14,13.54-27.83,22.51-48,22.51A66.32,66.32,0,0,1-7,371.12c18.11-3.78,32.84-15,39.56-29.68a228.26,228.26,0,0,1-70.37-48.76q-5.61-5.74-10.73-11.85C-77.09,246.71-94,204.37-94,158.5-94,45.56,8.53-46,135-46S364,45.56,364,158.5Z"/><text class="cls-6" transform="translate(56.89 118.76)">He<tspan class="cls-7" x="83.64" y="0">l</tspan><tspan class="cls-8" x="104.95" y="0">l</tspan><tspan x="124.61" y="0">o!</tspan><tspan class="cls-9"><tspan x="0" y="102">A</tspan><tspan class="cls-10" x="46.96" y="102">p</tspan><tspan class="cls-11" x="83.88" y="102">r</tspan><tspan class="cls-12" x="117.89" y="102">il!</tspan></tspan></text><ellipse class="cls-4" cx="668" cy="202.5" rx="73" ry="63.5"/><ellipse class="cls-5" cx="662" cy="203.5" rx="73" ry="63.5"/><text class="cls-13" transform="translate(620.63 212.56)">He<tspan class="cls-14" x="41.23" y="0">l</tspan><tspan class="cls-15" x="51.73" y="0">l</tspan><tspan class="cls-16" x="61.43" y="0">o!</tspan></text></svg>