<svg xmlns="http://www.w3.org/2000/svg" viewBox="0 0 800 600"><defs><style>.cls-1{fill:#666;}.cls-2{fill:#4d4d4d;}.cls-3{fill:#87a5b5;}.cls-4{fill:#bdccd4;}.cls-5{fill:#534741;}.cls-6{fill:#5d727d;}.cls-7{fill:#728b99;}.cls-8{fill:#9ec2d4;}.cls-12,.cls-9{fill:#fc5185;}.cls-14,.cls-9{stroke:#fff;stroke-width:2px;}.cls-10,.cls-13,.cls-14,.cls-19,.cls-9{stroke-miterlimit:10;}.cls-10,.cls-13,.cls-19{fill:none;}.cls-10,.cls-19{stroke:#000;}.cls-11{fill:#333;}.cls-13{stroke:#17404f;}.cls-14,.cls-15{fill:#09c;}.cls-16{fill:#f15a24;}.cls-17{fill:#f7931e;}.cls-18{fill:#fbb03b;}.cls-19{stroke-width:0.75px;}</style></defs><title>PlayGameApril</title><g id="Layer_3" data-name="Layer 3"><path class="cls-1" d="M761.16,600.5H39.84L34.2,545.84a7.66,7.66,0,0,1,7.47-9.39H759.33a7.66,7.66,0,0,1,7.47,9.39Z"/><path class="cls-2" d="M759.33,536.45H41.67a7.66,7.66,0,0,0-7.47,9.39l5.3,54.66h-2l-7.3-61.84A9.52,9.52,0,0,1,39.47,527H761.53a9.52,9.52,0,0,1,9.27,11.66l-7.3,61.84h-2l5.3-54.66A7.66,7.66,0,0,0,759.33,536.45Z"/><polygon class="cls-1" points="34.2 545.84 39.84 600.5 39.5 600.5 34.2 545.84"/><polygon class="cls-1" points="766.8 545.84 761.5 600.5 761.16 600.5 766.8 545.84"/></g><g id="Layer_2" data-name="Layer 2"><path class="cls-3" d="M90.51,306.63h0a9.67,9.67,0,0,1,1.53-.12h3.1a8.67,8.67,0,0,1,4.73,1.4l2.6,2.57a8.63,8.63,0,0,1,1.3,3.24,520.38,520.38,0,0,1,17.44,96.77,8.53,8.53,0,0,0,8.39,7l4.19.11A6.15,6.15,0,0,0,139,420.5h9.57l.45,0h.13l.47-.1.34-.11.07,0,.15-.06a3.62,3.62,0,0,0,.43-.24,2.27,2.27,0,0,0,.4-.29,3.82,3.82,0,0,0,1.08-1.35h0l.34-.21,9.32.21a16.16,16.16,0,0,0,10.91,4.22h127a21.45,21.45,0,0,0,9.59-2.24h0q12.56.08,25.08.11h0a22.37,22.37,0,0,0,9.58,2.13H463.31a22.09,22.09,0,0,0,10.37-2.57q13.76-.1,27.48-.25a21.48,21.48,0,0,0,7.11,1.2H635.32a16.12,16.12,0,0,0,9.47-3.05l19.14-.28,3.15-.05a10.53,10.53,0,0,0,10.27-8.22A533.87,533.87,0,0,1,688,350.54q4.13-17,9.54-33.15.78-2.33,1.59-4.62a8,8,0,0,1,7.84-6.27h3.78a6.39,6.39,0,0,1,1.25.12h0l3,1.35h0a7,7,0,0,1,2.73,6.28L705.26,440.76a8.57,8.57,0,0,1-8.53,7.74h-591A11.29,11.29,0,0,1,94.5,438.31L82.54,317A9.56,9.56,0,0,1,90.51,306.63Z"/><path class="cls-4" d="M697.5,300.22l14.46,6.4a6.39,6.39,0,0,0-1.25-.12h-3.78A8,8,0,0,0,702.3,308l-4.8-2.19L694,304.2a3.79,3.79,0,0,0-.74-.7,4.46,4.46,0,0,0-2-.91h0l-30.87-13.85c-.62-.28-1.26-.53-1.9-.75l-.06,0-1.73-.79-.13-.67h4.09a27.73,27.73,0,0,1,11.24,2.38Z"/><path class="cls-5" d="M698.5,448.5l8,37H692.17l-2.57-9.25a20.14,20.14,0,0,0-19.41-14.75H134.34A25.25,25.25,0,0,0,111,477.05l-3.52,8.45h-12l6-37h597Z"/><path class="cls-6" d="M697.5,305.78l4.8,2.19a8,8,0,0,0-3.21,4.8q-.81,2.3-1.59,4.62-5.44,16.13-9.54,33.15l-2.89-.69,10-41.4a4.78,4.78,0,0,0-1-4.25Z"/><path class="cls-7" d="M694,304.2a4.78,4.78,0,0,1,1,4.25l-10,41.4-8.9,37h0l-.4,1.66-5.84,24.27a6.18,6.18,0,0,1-6,4.73h-9.46l-3.63-2.22h0a3.94,3.94,0,0,1-.28-2.55L656,388.5,667,340h0l7.24-32a7,7,0,0,1,6.82-5.46h9.24Z"/><path class="cls-7" d="M694,304.2l-3.72-1.7h.05a5.05,5.05,0,0,1,.88.08h0l2,.91A3.79,3.79,0,0,1,694,304.2Z"/><path class="cls-6" d="M693.28,303.5l-2-.91A4.46,4.46,0,0,1,693.28,303.5Z"/><path class="cls-6" d="M660.36,288.73l30.87,13.85a5.05,5.05,0,0,0-.88-.08h-.05L658.46,288C659.1,288.2,659.74,288.45,660.36,288.73Z"/><path class="cls-3" d="M690.3,302.5h-9.24a7,7,0,0,0-6.82,5.46L667,340h0L656,388.5l-5.48,24.23a3.94,3.94,0,0,0,.28,2.55l-2.2-1.35a16.15,16.15,0,0,0,2.9-9.26V381.51a12.63,12.63,0,0,0-9.14-12.14l-13.74-9.28q-1-.61-2.13-1.14l14.34-65.15a9.3,9.3,0,0,1,9.08-7.3,25.37,25.37,0,0,1,6.78.92h0a16.37,16.37,0,0,1,1.68.53l.06,0Z"/><path class="cls-6" d="M685.07,349.85l2.89.69a533.87,533.87,0,0,0-10.61,58.74,10.53,10.53,0,0,1-10.27,8.22l-3.15.05v-.05a6.18,6.18,0,0,0,6-4.73l5.84-24.27.4-1.66h0Z"/><path class="cls-6" d="M663.93,417.5v.05l-19.14.28a16.35,16.35,0,0,0,3.84-3.9l2.2,1.35h0a3.82,3.82,0,0,0,1.08,1.35,2.19,2.19,0,0,0,.44.31,3,3,0,0,0,.47.25,3.7,3.7,0,0,0,1,.28l.48,0h9.57Z"/><path class="cls-6" d="M656.67,287.17l1.73.79a16.37,16.37,0,0,0-1.68-.53h0Z"/><path class="cls-6" d="M656.67,287.17l.05.25a25.37,25.37,0,0,0-6.78-.92h5.27Z"/><polygon class="cls-6" points="656.54 286.5 656.67 287.17 655.21 286.5 656.54 286.5"/><path class="cls-8" d="M651.76,262.06l4.78,24.44h-6.6a9.3,9.3,0,0,0-9.08,7.3L626.52,359a30.24,30.24,0,0,0-13.26-3.07H485.66a5.78,5.78,0,0,0-5,8.72l6.67,11.28a11.28,11.28,0,0,0-.83,4.24v8.38h-1v-11a6.81,6.81,0,0,0-1-3.58h0l-5.62-10.22c-.12-.22-.25-.43-.38-.64V255.71a9.71,9.71,0,0,1,.07-1.21,9.91,9.91,0,0,1,10.13-8.7l149,4.36a14.73,14.73,0,0,1,14,11.9Z"/><path class="cls-7" d="M654.47,417.5a5.68,5.68,0,0,1-.59,0,4.06,4.06,0,0,1-1-.28,2.64,2.64,0,0,1-.47-.25,2.69,2.69,0,0,1-.44-.31,4.35,4.35,0,0,1-1.08-1.35Z"/><path class="cls-8" d="M651.53,381.51v23.16a16.15,16.15,0,0,1-2.9,9.26,16.35,16.35,0,0,1-3.84,3.9,16.12,16.12,0,0,1-9.47,3.05H508.27a21.48,21.48,0,0,1-7.11-1.2,21.73,21.73,0,0,1-14.63-20.54v-19a11.24,11.24,0,0,1,11.24-11.24H638.91a12.45,12.45,0,0,1,3.48.49A12.63,12.63,0,0,1,651.53,381.51Z"/><path class="cls-4" d="M628.65,360.09l13.74,9.28a12.45,12.45,0,0,0-3.48-.49H497.77a11.24,11.24,0,0,0-10.41,7l-6.67-11.28a5.78,5.78,0,0,1,5-8.72h127.6A30.24,30.24,0,0,1,626.52,359Q627.6,359.48,628.65,360.09Z"/><path class="cls-6" d="M486.53,399.14a21.73,21.73,0,0,0,14.63,20.54q-13.73.13-27.48.25a22.18,22.18,0,0,0,11.82-19.62V388.5h1Z"/><path class="cls-8" d="M485.5,388.5v11.81a22.18,22.18,0,0,1-22.19,22.19H344.05a22.37,22.37,0,0,1-9.58-2.13h0A22.62,22.62,0,0,1,321.5,400V379.39a8.86,8.86,0,0,1,1.92-5.51v0a8.83,8.83,0,0,1,6.07-3.31,6.55,6.55,0,0,1,.89-.05H478.54a7,7,0,0,1,6,3.37h0a6.81,6.81,0,0,1,1,3.58Z"/><path class="cls-4" d="M478.88,363.65l5.62,10.22a7,7,0,0,0-6-3.37H330.39a6.55,6.55,0,0,0-.89.05,8.83,8.83,0,0,0-6.07,3.31l5.68-10.25.39-.66a12,12,0,0,1,10-5.45h129a11.79,11.79,0,0,1,7,2.31,11.6,11.6,0,0,1,3,3.2C478.63,363.22,478.76,363.43,478.88,363.65Z"/><path class="cls-6" d="M475.5,254.5h3.07a9.71,9.71,0,0,0-.07,1.21V363a11.6,11.6,0,0,0-3-3.2Z"/><path class="cls-8" d="M475.5,254.5V359.81a11.79,11.79,0,0,0-7-2.31h-129a11.79,11.79,0,0,0-7,2.29V254.37a8.87,8.87,0,0,1,8.87-8.87H468.72a6.79,6.79,0,0,1,6.78,6.78Z"/><path class="cls-6" d="M332.5,254.5V359.79a11.75,11.75,0,0,0-3,3.16V255.71a9.71,9.71,0,0,0-.07-1.21Z"/><path class="cls-8" d="M329.5,255.71V363l-.39.66-5.68,10.25v0a8.86,8.86,0,0,0-1.92,5.51v2.35a11.09,11.09,0,0,0-.83-4.24l6.67-11.28a5.78,5.78,0,0,0-5-8.72H194.77a30.21,30.21,0,0,0-15.39,4.21l-2.63,1.61L162.11,296.8a9.3,9.3,0,0,0-9.08-7.3c-.73,0-1.46,0-2.18.1l.29-1.48.29-1.46,4.81-24.6a14.73,14.73,0,0,1,14-11.9l149-4.36a9.91,9.91,0,0,1,10.13,8.7A9.71,9.71,0,0,1,329.5,255.71Z"/><path class="cls-4" d="M322.37,357.5a5.78,5.78,0,0,1,5,8.72l-6.67,11.28a11.23,11.23,0,0,0-10.41-7H169.13a12.37,12.37,0,0,0-4.23.73l11.85-7.91,2.63-1.61a30.21,30.21,0,0,1,15.39-4.21Z"/><path class="cls-6" d="M321.5,400a22.62,22.62,0,0,0,12.95,20.42q-12.52,0-25.08-.11a21.71,21.71,0,0,0,12.13-19.5Z"/><path class="cls-8" d="M321.5,400v.81a21.71,21.71,0,0,1-12.13,19.5h0a21.45,21.45,0,0,1-9.59,2.24h-127a16.23,16.23,0,0,1-16.21-16.21V383.13a12.56,12.56,0,0,1,3.27-8.48h0a12.58,12.58,0,0,1,5.12-3.41,12.37,12.37,0,0,1,4.23-.73H310.26a11.23,11.23,0,0,1,10.41,7,11.09,11.09,0,0,1,.83,4.24Z"/><path class="cls-3" d="M162.11,296.8l14.64,66.52-11.85,7.91a12.58,12.58,0,0,0-5.12,3.41h0a12.56,12.56,0,0,0-3.27,8.48v23.16a16,16,0,0,0,2.13,8l-6.15,3.76h-.25a3.9,3.9,0,0,0,.19-2.33l-6.16-27.23-7.91-35L128.73,311a7,7,0,0,0-6.82-5.46h-9.29a4.82,4.82,0,0,0-.86.08l30.85-13.85a25.38,25.38,0,0,1,8.24-2.13c.72-.07,1.45-.1,2.18-.1A9.3,9.3,0,0,1,162.11,296.8Z"/><path class="cls-6" d="M161.8,418.28l-9.32-.21,6.15-3.76A16.07,16.07,0,0,0,161.8,418.28Z"/><path class="cls-3" d="M152.42,415.73a3.9,3.9,0,0,1-.19,2.33,1.21,1.21,0,0,1,0,.14,6,6,0,0,1-.68.3C151.79,417.79,152.6,416.55,152.42,415.73Z"/><path class="cls-7" d="M152.42,415.73c.18.82-.63,2.06-.92,2.77a6,6,0,0,0,.68-.3.2.2,0,0,0,0,.08h0a4.65,4.65,0,0,1-1.08,1.35,2.7,2.7,0,0,1-.4.29,3.62,3.62,0,0,1-.43.24l-.15.06-.07,0-.34.11-.47.1h-.13l-.45,0H139a6.15,6.15,0,0,1-5.22-2.89,6,6,0,0,1-.78-1.84L107.93,311.45a4.78,4.78,0,0,1,1.76-4.95l2-.91h0a4.82,4.82,0,0,1,.86-.08h9.29a7,7,0,0,1,6.82,5.46l9.62,42.54,7.91,35Z"/><path class="cls-4" d="M151.43,286.66l-.29,1.46-.75.29L99.9,307.9a8.67,8.67,0,0,0-4.73-1.4h-3.1a9.67,9.67,0,0,0-1.53.12l12-4.54L131.78,291A68.38,68.38,0,0,1,151.43,286.66Z"/><path class="cls-6" d="M151.14,288.12l-.29,1.48a25.38,25.38,0,0,0-8.24,2.13l-30.85,13.85h0a4.46,4.46,0,0,0-2,.91,4.78,4.78,0,0,0-1.76,4.95L133,415.77a6,6,0,0,0,.78,1.84l-4.19-.11a8.53,8.53,0,0,1-8.39-7,520.38,520.38,0,0,0-17.44-96.77,8.63,8.63,0,0,0-1.3-3.24A8.44,8.44,0,0,0,100,308l2.48-1,47.89-18.6Z"/><path class="cls-6" d="M150.39,288.41,102.5,307,100,308l-.12-.07Z"/><path class="cls-7" d="M150.07,420.22l.15-.06Z"/><path class="cls-6" d="M102.5,310.47l-2.6-2.57.12.07A8.44,8.44,0,0,1,102.5,310.47Z"/></g><g id="Layer_4" data-name="Layer 4"><path class="cls-9" d="M394.87,317.82c0,58.87-46.78,80.18-105.65,80.18s-107.54-21.31-107.54-80.18a106.6,106.6,0,1,1,213.19,0Z"/><path d="M316.09,259.75a7.55,7.55,0,0,1-15.09,0,6.85,6.85,0,0,1,.13-1.37l11.93-4.67A7.52,7.52,0,0,1,316.09,259.75Z"/><polyline class="cls-10" points="299.56 259 302.69 257.77 311.74 254.23 317 252.17"/><path d="M259.47,259.75a7.55,7.55,0,0,0,15.09,0,6.85,6.85,0,0,0-.13-1.37l-11.93-4.67A7.52,7.52,0,0,0,259.47,259.75Z"/><polyline class="cls-10" points="276 259 272.87 257.77 263.82 254.23 258.56 252.17"/><polygon class="cls-11" points="253.91 296.98 265.34 296.98 251.6 301.79 253.91 296.98"/><polygon class="cls-11" points="266.2 296.68 266.2 296.98 265.34 296.98 266.2 296.68"/><polygon class="cls-11" points="304.2 296.68 305.06 296.98 304.2 296.98 304.2 296.68"/><polygon class="cls-11" points="318.8 301.79 305.06 296.98 316.49 296.98 318.8 301.79"/><polygon class="cls-1" points="266.2 295.48 266.2 296.68 265.34 296.98 253.91 296.98 254.64 295.48 266.2 295.48"/><polygon class="cls-11" points="253.91 296.98 265.34 296.98 251.6 301.79 253.91 296.98"/><polygon class="cls-11" points="266.2 296.68 266.2 296.98 265.34 296.98 266.2 296.68"/><polygon class="cls-1" points="316.49 296.98 305.06 296.98 304.2 296.68 304.2 295.48 315.76 295.48 316.49 296.98"/><polygon class="cls-11" points="304.2 296.68 305.06 296.98 304.2 296.98 304.2 296.68"/><polygon class="cls-11" points="318.8 301.79 305.06 296.98 316.49 296.98 318.8 301.79"/><polygon class="cls-2" points="265.34 296.98 251.6 301.79 253.91 296.98 265.34 296.98"/><polygon class="cls-2" points="318.8 301.79 305.06 296.98 316.49 296.98 318.8 301.79"/><path class="cls-11" d="M330.7,328.37v13.92a6.49,6.49,0,0,1-1.9,4.59l-3.53,3.53a3.67,3.67,0,0,1-2.58,1.07h0a3.57,3.57,0,0,1-2.54-1.06L306,336.23a4.28,4.28,0,0,0-3-1.25H267.47a4.28,4.28,0,0,0-3,1.25l-14.18,14.18a3.67,3.67,0,0,1-2.58,1.07h0a3.57,3.57,0,0,1-2.54-1.06l-3.56-3.55a6.45,6.45,0,0,1-1.89-4.57V328.4a8.29,8.29,0,0,1,.82-3.6l4.25-8.82,6.83-14.19L265.34,297h39.72l13.74,4.81L325.63,316l4.26,8.85A8.16,8.16,0,0,1,330.7,328.37Z"/><path class="cls-12" d="M342.25,307.29,327.32,320a7.35,7.35,0,0,0,1.5,12.17l13.06,6.51"/><path class="cls-12" d="M230.38,302.55l12.2,15.36a7.35,7.35,0,0,1-3.79,11.66l-14.07,3.88"/><path class="cls-13" d="M231,302.76l12.24,15.4a7.37,7.37,0,0,1-3.81,11.68l-14.1,3.89"/><path class="cls-13" d="M341.72,307.33l-14.93,12.74a7.35,7.35,0,0,0,1.49,12.17l13.06,6.51"/><path class="cls-13" d="M278.27,277.5c5.89,3.62,12.19,3.9,19,0"/></g><g id="Layer_5" data-name="Layer 5"><path class="cls-14" d="M625,314.62c0,58.88-46.78,80.19-105.65,80.19S411.82,373.5,411.82,314.62a106.6,106.6,0,0,1,213.19,0Z"/><polygon class="cls-11" points="484.05 293.78 495.48 293.78 481.74 298.59 484.05 293.78"/><polygon class="cls-11" points="496.34 293.48 496.34 293.78 495.48 293.78 496.34 293.48"/><polygon class="cls-11" points="534.34 293.48 535.2 293.78 534.34 293.78 534.34 293.48"/><polygon class="cls-11" points="548.94 298.59 535.2 293.78 546.63 293.78 548.94 298.59"/><polygon class="cls-1" points="496.34 292.28 496.34 293.48 495.48 293.78 484.05 293.78 484.78 292.28 496.34 292.28"/><polygon class="cls-11" points="484.05 293.78 495.48 293.78 481.74 298.59 484.05 293.78"/><polygon class="cls-11" points="496.34 293.48 496.34 293.78 495.48 293.78 496.34 293.48"/><polygon class="cls-1" points="546.63 293.78 535.2 293.78 534.34 293.48 534.34 292.28 545.9 292.28 546.63 293.78"/><polygon class="cls-11" points="534.34 293.48 535.2 293.78 534.34 293.78 534.34 293.48"/><polygon class="cls-11" points="548.94 298.59 535.2 293.78 546.63 293.78 548.94 298.59"/><polygon class="cls-2" points="495.48 293.78 481.74 298.59 484.05 293.78 495.48 293.78"/><polygon class="cls-2" points="548.94 298.59 535.2 293.78 546.63 293.78 548.94 298.59"/><path class="cls-11" d="M560.84,325.17V339.1a6.49,6.49,0,0,1-1.9,4.58l-3.53,3.54a3.66,3.66,0,0,1-2.58,1.06h0a3.63,3.63,0,0,1-2.55-1L536.09,333a4.28,4.28,0,0,0-3-1.25H497.61a4.26,4.26,0,0,0-3,1.25l-14.18,14.19a3.66,3.66,0,0,1-2.58,1.06h0a3.59,3.59,0,0,1-2.54-1l-3.56-3.56a6.45,6.45,0,0,1-1.89-4.56V325.2a8.28,8.28,0,0,1,.82-3.59l4.25-8.83,6.83-14.19,13.74-4.81H535.2l13.74,4.81,6.83,14.19,4.26,8.86A8.15,8.15,0,0,1,560.84,325.17Z"/><path class="cls-15" d="M572.39,304.1l-14.93,12.74A7.35,7.35,0,0,0,559,329L572,335.52"/><path class="cls-15" d="M460.52,299.35l12.2,15.37a7.34,7.34,0,0,1-3.79,11.65l-14.07,3.89"/><path class="cls-13" d="M461.12,299.56,473.35,315a7.35,7.35,0,0,1-3.8,11.67l-14.1,3.9"/><path class="cls-13" d="M571.85,304.14l-14.93,12.74A7.35,7.35,0,0,0,558.41,329l13.07,6.52"/><circle cx="497.61" cy="256.11" r="7.6"/><circle cx="539.4" cy="256.11" r="7.6"/><ellipse class="cls-13" cx="518.5" cy="274.5" rx="6.5" ry="4"/></g><g id="Layer_6" data-name="Layer 6"><rect class="cls-16" x="365.89" y="68.54" width="7" height="59" transform="translate(84.27 -156.46) rotate(26.89)"/><rect class="cls-17" x="360.85" y="48.59" width="51" height="32" transform="translate(70.98 -167.74) rotate(26.89)"/><rect class="cls-18" x="409.05" y="58.31" width="5" height="37" transform="translate(79.23 -177.82) rotate(26.89)"/><rect class="cls-18" x="359.11" y="32.99" width="5" height="37" transform="translate(62.38 -157.97) rotate(26.89)"/><path class="cls-9" d="M362.52,132c0,14-11.08,19-25,19S312,146,312,132a25.26,25.26,0,1,1,50.52,0Z"/><path class="cls-14" d="M501.52,132c0,14-11.08,19-25,19S451,146,451,132a25.26,25.26,0,1,1,50.52,0Z"/><line class="cls-19" x1="441.07" y1="130.45" x2="428.93" y2="129.55"/><line class="cls-19" x1="440.88" y1="136.33" x2="417.12" y2="139.67"/><line class="cls-19" x1="295.07" y1="130.45" x2="282.93" y2="129.55"/><line class="cls-19" x1="294.88" y1="136.33" x2="271.12" y2="139.67"/></g></svg>