<svg xmlns="http://www.w3.org/2000/svg" viewBox="0 0 800 600"><defs><style>.cls-1{opacity:0.5;}.cls-2{fill:#ffcffd;}.cls-3{fill:#ccf5ff;}.cls-4{fill:#09c;}.cls-10,.cls-11,.cls-12,.cls-13,.cls-17,.cls-18,.cls-5,.cls-6{fill:none;stroke-miterlimit:10;}.cls-5{stroke:#fff;}.cls-12,.cls-6{stroke:#1e7a9c;}.cls-11,.cls-6{stroke-width:0.5px;}.cls-7{fill:#388296;}.cls-8{fill:#1e7a9c;}.cls-9{fill:#17404f;}.cls-10,.cls-11,.cls-13,.cls-17,.cls-18{stroke:#17404f;}.cls-10{stroke-width:2px;}.cls-13{stroke-width:8px;}.cls-14{fill:#f7aa5c;}.cls-15{fill:#ff931e;}.cls-16{fill:#fc5185;}.cls-18{stroke-width:0.75px;}.cls-19{fill:#f15a24;}</style></defs><title>PlaySportApril</title><g id="Layer_1" data-name="Layer 1"><g class="cls-1"><polygon class="cls-2" points="800.5 0.5 800.5 599.5 209.23 599.5 591.13 0.5 800.5 0.5"/><polygon class="cls-3" points="591.13 0.5 209.23 599.5 0.5 599.5 0.5 0.5 591.13 0.5"/></g></g><g id="Layer_6" data-name="Layer 6"><path class="cls-4" d="M449,84.09a26.65,26.65,0,0,0-.8,8.38c1,15.66,14.19,21.3,30.43,21.26S507.9,108,507,92.33,492.07,64,475.84,64a27.64,27.64,0,0,0-24.77,14.54,2,2,0,0,0-2.2,2Z"/><path class="cls-5" d="M448.15,92.47c1,15.66,14.19,21.3,30.43,21.26S507.9,108,507,92.33,492.07,64,475.84,64a27.64,27.64,0,0,0-24.77,14.54,2,2,0,0,0-2.2,2l.08,3.5A26.65,26.65,0,0,0,448.15,92.47Z"/><line class="cls-6" x1="430.24" y1="45.35" x2="419" y2="56.31"/><line class="cls-6" x1="424.45" y1="61.9" x2="435.7" y2="50.95"/><line class="cls-6" x1="422.49" y1="60.24" x2="434.26" y2="48.78"/><line class="cls-6" x1="420.61" y1="58.31" x2="432.38" y2="46.84"/><line class="cls-6" x1="417.07" y1="50.8" x2="424.97" y2="43.11"/><line class="cls-6" x1="420.62" y1="44.44" x2="434.9" y2="59.27"/><line class="cls-6" x1="423.41" y1="43.08" x2="436.67" y2="56.87"/><line class="cls-6" x1="418.51" y1="46.84" x2="432.79" y2="61.67"/><line class="cls-6" x1="417.26" y1="49.77" x2="429.83" y2="62.85"/><line class="cls-6" x1="427.19" y1="44.7" x2="418.43" y2="53.23"/><line class="cls-6" x1="436.19" y1="53.94" x2="427.43" y2="62.47"/><rect class="cls-7" x="446.92" y="71.08" width="4.66" height="10.05" transform="translate(74.35 335.08) rotate(-44.25)"/><polygon class="cls-8" points="443.05 73.08 444.07 74.13 447.41 70.88 446.38 69.83 444.69 70.02 444.73 70.07 443.33 71.44 443.28 71.39 443.05 73.08"/><polygon class="cls-9" points="443.28 71.39 443.33 71.44 444.73 70.07 444.69 70.02 434.64 59.7 433.23 61.07 443.28 71.39"/><ellipse class="cls-10" cx="426.75" cy="53.01" rx="8.21" ry="10.3" transform="translate(84.08 312.82) rotate(-44.25)"/><circle cx="465.49" cy="75.3" r="1.76"/><circle cx="475.19" cy="75.3" r="1.76"/><path class="cls-11" d="M488.22,82.67,484,81a1.72,1.72,0,0,0-2.35,1.63l.07,3.41"/><path class="cls-11" d="M470.32,80.17a.9.9,0,0,1-1.77,0"/><path class="cls-11" d="M472.11,80.17a.9.9,0,0,1-1.77,0"/></g><g id="Layer_4" data-name="Layer 4"><line class="cls-12" x1="241.17" y1="114.23" x2="301.24" y2="136.36"/><line class="cls-12" x1="290.23" y1="166.26" x2="230.16" y2="144.13"/><line class="cls-12" x1="294.76" y1="156.81" x2="231.89" y2="133.65"/><line class="cls-12" x1="298.56" y1="146.49" x2="235.69" y2="123.33"/><line class="cls-12" x1="299.3" y1="112.66" x2="257.07" y2="97.11"/><line class="cls-12" x1="275.5" y1="94.83" x2="246.93" y2="173.83"/><line class="cls-12" x1="262.85" y1="94.44" x2="236.36" y2="167.81"/><line class="cls-12" x1="287.35" y1="100.26" x2="258.79" y2="179.26"/><line class="cls-12" x1="296.88" y1="109.1" x2="271.78" y2="178.72"/><line class="cls-12" x1="251.46" y1="106.73" x2="298.27" y2="123.97"/><line class="cls-12" x1="233.28" y1="156.09" x2="280.09" y2="173.33"/><rect class="cls-7" x="200.96" y="250.86" width="41" height="19" transform="translate(-99.39 378.19) rotate(-69.78)"/><polygon class="cls-8" points="239.53 238.77 237.46 244.4 219.63 237.84 221.7 232.21 228.34 230.09 228.25 230.35 235.75 233.12 235.85 232.86 239.53 238.77"/><polygon class="cls-9" points="235.85 232.86 235.75 233.12 228.25 230.35 228.34 230.09 248.64 174.99 256.14 177.75 235.85 232.86"/><ellipse class="cls-13" cx="266.91" cy="136.96" rx="42" ry="33.5" transform="translate(46.14 340.08) rotate(-69.78)"/></g><g id="Layer_5" data-name="Layer 5"><path class="cls-14" d="M357.31,76.69l6.46,16.69a1.13,1.13,0,0,1-1.16,1.54l-16.12-1.66a1.49,1.49,0,0,0-.09-.59L345,88.94a1.51,1.51,0,0,0-.52-.69l11-11.92A1.12,1.12,0,0,1,357.31,76.69Z"/><path class="cls-15" d="M344.43,88.25a1.51,1.51,0,0,1,.52.69l1.45,3.73a1.49,1.49,0,0,1,.09.59,1.51,1.51,0,0,1-1,1.38l-.89.34a3.12,3.12,0,0,1-4-1.78l-.29-.75a3.12,3.12,0,0,1,1.78-4l.89-.35A1.53,1.53,0,0,1,344.43,88.25Z"/></g><g id="Layer_2" data-name="Layer 2"><path class="cls-16" d="M220.07,292.26a109.51,109.51,0,0,1,3.25,34.17c-3.86,63.89-57.88,86.89-124.1,86.73s-119.57-23.41-115.71-87.3,60.68-115.56,126.9-115.4c44.89.11,82.58,24,101,59.29a8.12,8.12,0,0,1,9,8.25Z"/><path class="cls-5" d="M223.32,326.43c-3.86,63.89-57.88,86.89-124.1,86.73s-119.57-23.41-115.71-87.3,60.68-115.56,126.9-115.4c44.89.11,82.58,24,101,59.29a8.12,8.12,0,0,1,9,8.25l-.3,14.26A109.51,109.51,0,0,1,223.32,326.43Z"/><polygon class="cls-7" points="209.86 264.37 207.23 271.14 213 271 209.86 264.37"/><path class="cls-5" d="M213.66,269.85a13.22,13.22,0,0,0-5.31.25l-3.24,1"/><polygon class="cls-16" points="209.04 266.48 207 272 201 273 209.04 266.48"/><path class="cls-17" d="M189.17,277.13l19.5-6.08c6.83-1.55,10.83,1.45,10.75,8.24l-.12,15.09"/></g><g id="Layer_3" data-name="Layer 3"><path class="cls-16" d="M680.61,257.75l-1.36-1.38a3.37,3.37,0,0,1,1.14-5.51l2.28-.91a48.87,48.87,0,0,1,95,16.29c0,27-21.45,36.76-48.44,36.76s-49.3-9.77-49.3-36.76A49.38,49.38,0,0,1,680.61,257.75Z"/><path class="cls-5" d="M777.62,266.24c0,27-21.45,36.76-48.44,36.76s-49.3-9.77-49.3-36.76a49.38,49.38,0,0,1,.73-8.49l-1.36-1.38a3.37,3.37,0,0,1,1.14-5.51l2.28-.91a48.87,48.87,0,0,1,95,16.29Z"/><circle cx="715.71" cy="232.66" r="3.46"/><circle cx="734.74" cy="232.66" r="3.46"/><path class="cls-18" d="M689.07,247.8l-8.1,3.41a3.3,3.3,0,0,0-1.25,5.29l4.38,4.4"/><path class="cls-18" d="M756.16,246.55l-8.7,2.3a3.37,3.37,0,0,0-1.8,5.32l4.1,5.29"/><ellipse class="cls-11" cx="724.5" cy="242.5" rx="3" ry="2"/></g><g id="Layer_7" data-name="Layer 7"><path class="cls-4" d="M579.17,504.88c-2.5-41.16-27-77.25-61.85-97.61a127.79,127.79,0,0,0-64.79-17.55c-44.8.11-82.41,24-100.8,59.17l-8.63,22.46a109.07,109.07,0,0,0-3.25,34.1c3.86,63.76,57.76,86.71,123.85,86.55S583,568.64,579.17,504.88Z"/><path class="cls-5" d="M343.1,471.35a109.07,109.07,0,0,0-3.25,34.1c3.86,63.76,57.76,86.71,123.85,86.55S583,568.64,579.17,504.88c-2.5-41.16-27-77.25-61.85-97.61a127.79,127.79,0,0,0-64.79-17.55c-44.8.11-82.41,24-100.8,59.17Z"/><path class="cls-17" d="M535.64,467.66l17.75,5.73a7,7,0,0,1,3.13,11.22l-9.09,10.48"/></g><g id="Layer_8" data-name="Layer 8"><path class="cls-19" d="M582.52,340.57A68.11,68.11,0,0,1,579,403.21c-26.36-2.33-69.39-13.61-86.3-5.6a120.67,120.67,0,0,1-11.1-22.79C505.89,358.21,541.52,345.66,582.52,340.57Z"/><path class="cls-19" d="M579,403.21a68,68,0,0,1-48.54,32.57,120.53,120.53,0,0,1-37.76-38.17C509.59,389.6,552.62,400.88,579,403.21Z"/><path class="cls-19" d="M520.5,300.5a68,68,0,0,1,62,40.07c-41,5.09-76.63,17.64-100.94,34.25a113.26,113.26,0,0,1-4.73-17c12-9.91,26.31-38.54,40.92-57.29Q519.14,300.5,520.5,300.5Z"/><path class="cls-19" d="M530.44,435.78a69.32,69.32,0,0,1-9.94.72,67.62,67.62,0,0,1-26-5.16c-12.43-19.64-10.85-29.44-1.8-33.73A120.53,120.53,0,0,0,530.44,435.78Z"/><path class="cls-19" d="M517.77,300.56c-14.61,18.75-28.91,47.38-40.92,57.29a107.39,107.39,0,0,1-2-24.64,97.76,97.76,0,0,1,2.06-16.9A67.59,67.59,0,0,1,517.77,300.56Z"/><path class="cls-19" d="M481.58,374.82a120.67,120.67,0,0,0,11.1,22.79c-9.05,4.29-10.63,14.09,1.8,33.73a68.16,68.16,0,0,1-36.08-35.11C464.11,388.6,472,381.39,481.58,374.82Z"/><path class="cls-19" d="M476.85,357.85a113.26,113.26,0,0,0,4.73,17c-9.62,6.57-17.47,13.78-23.18,21.41A68.16,68.16,0,0,1,456.69,345C462,362.8,469,364.38,476.85,357.85Z"/><path class="cls-19" d="M476.92,316.31a97.76,97.76,0,0,0-2.06,16.9,107.39,107.39,0,0,0,2,24.64C469,364.38,462,362.8,456.69,345A67.93,67.93,0,0,1,476.92,316.31Z"/><path class="cls-10" d="M456.69,345a67.93,67.93,0,0,1,20.23-28.65"/><path class="cls-10" d="M458.4,396.23A68.16,68.16,0,0,1,456.69,345C462,362.8,469,364.38,476.85,357.85"/><path class="cls-10" d="M517.77,300.56q1.37-.06,2.73-.06a68,68,0,0,1,62,40.07"/><path class="cls-10" d="M481.58,374.82a113.26,113.26,0,0,1-4.73-17"/><path class="cls-10" d="M517.77,300.56c-14.61,18.75-28.91,47.38-40.92,57.29a107.39,107.39,0,0,1-2-24.64,97.76,97.76,0,0,1,2.06-16.9A67.59,67.59,0,0,1,517.77,300.56Z"/><path class="cls-10" d="M481.58,374.82c24.31-16.61,59.94-29.16,100.94-34.25A68.11,68.11,0,0,1,579,403.21"/><path class="cls-10" d="M494.48,431.34a68.16,68.16,0,0,1-36.08-35.11c5.71-7.63,13.56-14.84,23.18-21.41a120.67,120.67,0,0,0,11.1,22.79"/><path class="cls-10" d="M492.68,397.61c16.91-8,59.94,3.27,86.3,5.6a68,68,0,0,1-48.54,32.57"/><path class="cls-10" d="M530.44,435.78a69.32,69.32,0,0,1-9.94.72,67.62,67.62,0,0,1-26-5.16c-12.43-19.64-10.85-29.44-1.8-33.73A120.53,120.53,0,0,0,530.44,435.78Z"/><path class="cls-17" d="M575.5,285.5s11-22,36-28"/><path class="cls-17" d="M584.09,289.34s17.18-17.59,42.82-15.68"/></g><g id="Layer_9" data-name="Layer 9"><path class="cls-4" d="M544,437l-16,11-72-29-2-20c5.77,8.13,26.78,17.84,43,25C512.87,431,535,438.43,544,437Z"/><path class="cls-17" d="M458,401.22c5.3,7.48,24.59,16.4,39.48,23,14.57,6.44,34.9,13.27,43.14,11.95"/></g></svg>