<svg xmlns="http://www.w3.org/2000/svg" viewBox="0 0 1024 576"><defs><style>.cls-1{fill:#17404f;}.cls-2{fill:#19453d;}.cls-15,.cls-16,.cls-17,.cls-2,.cls-3,.cls-4{opacity:0.8;}.cls-3{fill:#1f594e;}.cls-5{fill:#336;}.cls-6{fill:#deccce;}.cls-7{fill:#f1dee0;}.cls-8{fill:#b08685;}.cls-9{fill:#e6afad;}.cls-10{fill:#6e5453;}.cls-11{fill:#8c6b6a;}.cls-12{fill:#204766;}.cls-13{fill:#4d3a3a;}.cls-14{fill:#362929;}.cls-15{fill:#25695d;}.cls-16{fill:#328c7c;}.cls-17{fill:#2f8273;}.cls-18{fill:#fc5185;stroke:#fff;stroke-width:2px;}.cls-18,.cls-34{stroke-miterlimit:10;}.cls-19{fill:#2c677a;}.cls-20{fill:#285c6e;}.cls-21{fill:#37829a;}.cls-22{fill:#204b59;}.cls-23{fill:#265869;}.cls-24{fill:#2b608a;}.cls-25{fill:#3372a3;}.cls-26{fill:#46468c;}.cls-27{fill:#4e4e9c;}.cls-28{fill:#424285;}.cls-29{fill:#5353a6;}.cls-30{fill:#3b84bd;}.cls-31{fill:#295a82;}.cls-32{fill:#c7d9df;}.cls-33{fill:#a1d0df;}.cls-34{fill:none;stroke:#17404f;}</style></defs><title>Artboard 2</title><g id="Layer_9" data-name="Layer 9"><rect class="cls-1" x="-0.66" width="1033.51" height="634.13"/><path class="cls-2" d="M1098.92,438.25a93.05,93.05,0,0,1-6.45,13.94H876.34a73,73,0,0,1-1.74-15.94c0-36.28,26.27-65.69,58.68-65.69a53.06,53.06,0,0,1,6.2.36C952,349.13,973,334.85,996.74,334.85c20.78,0,39.43,10.94,52.18,28.29,11.24-8.33,23.82-10.62,34.72-4.82C1104.3,369.28,1111.14,405.07,1098.92,438.25Z"/><path class="cls-2" d="M47.11,463.25l231-20c8.05-9.13,12.31-19.76,11.35-30.73-1.87-21.56-23.33-38.33-52.28-43.7-12-31-44.1-51.65-79.74-48.56a78.69,78.69,0,0,0-62,39.57C80.34,357.56,65.57,361,54,370.71,30.28,390.62,28,430.17,47.11,463.25Z"/><path class="cls-3" d="M68,398.21c-5.82,15.67-14.52,28-23.26,34.21a89.13,89.13,0,0,1-3,8.47H-10.21c-7.82-6-12.95-16-12.95-27.42,0-14.89,8.77-27.5,20.84-31.66.21-41.21,12.13-74.42,26.78-74.42,9.43,0,17.72,13.74,22.5,34.51,5.68-3.67,11.31-4.76,16.13-2.51C75.67,345.25,77.86,371.59,68,398.21Z"/><g class="cls-4"><polygon class="cls-5" points="1032.58 394.33 1032.58 518.13 72.81 539.13 72.81 398.63 219.77 397.98 219.77 398.63 798.62 395.38 1032.58 394.33"/><polygon class="cls-6" points="985.21 385.18 985.21 394.33 798.62 395.38 219.77 397.98 219.77 387.87 230 387.87 292.88 387.64 316.58 387.55 344.66 387.45 863.18 385.54 887.62 385.46 912.63 385.37 963.68 385.18 985.21 385.18"/><polygon class="cls-7" points="963.68 377.64 963.68 385.18 912.63 385.37 887.62 385.46 863.18 385.54 344.66 387.45 316.58 387.55 292.88 387.64 230 387.87 230 379.8 238.61 379.8 293.42 379.63 302.87 379.6 316.73 379.56 323.87 379.54 344.66 379.47 862.38 377.89 886.98 377.82 911.66 377.75 945.38 377.64 963.68 377.64"/><path class="cls-8" d="M924.18,227.54l-1.47-.6a34.64,34.64,0,0,0-12.51-2.66v-.8l18.48.21-8.07,7.54h-.11l2-2.06Z"/><path class="cls-9" d="M922.71,226.94l1.47.6-1.62,1.63-2,2.06-1.68,0c-.92-.27-1.82-.5-2.72-.69s-1.62-.31-2.4-.42c-.58-.07-1.16-.13-1.72-.16a21.75,21.75,0,0,0-2.67,0c-.31,0-.61,0-.92.06s-.57,0-.85.09l-1,.16a15.19,15.19,0,0,0-3.06.86l-.35.14a13.29,13.29,0,0,0-3,1.72l-1.41-1.24L898,231l-.91-.81-.56-.76a19.85,19.85,0,0,1,13.69-5.17A34.64,34.64,0,0,1,922.71,226.94Z"/><polygon class="cls-6" points="910.68 370.16 911.61 370.16 938.16 370.12 945.38 370.11 945.38 377.64 911.66 377.75 886.98 377.82 862.38 377.89 344.66 379.47 323.87 379.54 316.73 379.56 302.87 379.6 293.42 379.63 238.61 379.8 238.61 371.18 272.74 371.13 283.15 371.11 293.98 371.1 299.08 371.09 303.43 371.09 307.93 371.07 316.88 371.06 324.02 371.05 327.14 371.05 353.46 371.01 388.57 370.96 414.8 370.91 449.65 370.86 475.9 370.82 509.05 370.77 535.4 370.73 568.57 370.68 594.87 370.64 631.95 370.58 658.32 370.54 674.5 370.52 680.98 370.51 681.08 370.51 690.95 370.49 717.43 370.46 750.37 370.4 776.92 370.37 807.27 370.32 833.76 370.28 861.58 370.24 862.13 370.24 886.33 370.2 888.72 370.19 910.68 370.16"/><path class="cls-8" d="M901.48,223.38h0l8.73.1v.8a19.85,19.85,0,0,0-13.69,5.17l.56.76.91.81-6.47-.06Z"/><path class="cls-10" d="M900.36,236.61l.2,2.35-2.49,1.36a32.09,32.09,0,0,0-13-3.2v-.35Z"/><path class="cls-7" d="M921.25,240.34l16.91,129.78-26.55,0L900.87,242.57l-.31-3.61-.2-2.35-.3-3.62.08-.06.06.06a13,13,0,0,1,3-1.78,3,3,0,0,1,.36-.14,14.89,14.89,0,0,1,3-.86l1-.16c.28,0,.56-.07.85-.09s.61-.05.92-.06a21.75,21.75,0,0,1,2.67,0c.57,0,1.15.1,1.73.17.78.11,1.57.25,2.38.42s1.77.41,2.67.68c.45.13.9.28,1.35.43Z"/><path class="cls-8" d="M898.07,240.32l.3.13-1.52,1.62-2.27,2.43q-1.35-.5-2.67-.84a27.29,27.29,0,0,0-3.36-.71c-.42-.06-.84-.11-1.25-.14l-.54-.05a19.86,19.86,0,0,0-3.28,0,8.2,8.2,0,0,0-.85.1l-.53.08-.46.08-.78.18-.1,0-.57.16-.16.05-.56.2a.35.35,0,0,0-.13.05l-.64.25-.05,0a11.54,11.54,0,0,0-2.82,1.71l-1.33-1.27L872.94,243l-.53-.76a17.81,17.81,0,0,1,12.69-5.08A32.09,32.09,0,0,1,898.07,240.32Z"/><polygon class="cls-11" points="897.69 223.32 897.7 223.32 901.78 220.46 901.78 223.15 901.5 223.36 901.48 223.38 901.48 223.38 891.51 230.96 891.01 230.96 891.01 228 897.68 223.34 897.69 223.32"/><path class="cls-10" d="M885.1,236.77v.35a17.81,17.81,0,0,0-12.69,5.08l-.36.05-.32-2.45-.38-2.89Z"/><polygon class="cls-12" points="876.58 255.33 881.85 317.49 873.53 253.64 876.31 252.13 876.58 255.33"/><path class="cls-9" d="M895.7,253.22l15,116.94-22,0-6.87-52.7-5.27-62.16-.27-3.2-.55-6.37.07,0,.06,0a11.72,11.72,0,0,1,2.82-1.76,10.45,10.45,0,0,1,1.1-.43l.3-.1,0,0,.63-.19.44-.1h0l.41-.1.46-.08.53-.08a8.2,8.2,0,0,1,.85-.1,19.86,19.86,0,0,1,3.28,0l.54.05c.42,0,.84.09,1.27.15a28.81,28.81,0,0,1,3.33.71c.88.23,1.77.52,2.68.85Z"/><polygon class="cls-8" points="901.78 220.17 901.78 220.46 897.7 223.32 897.69 223.32 897.68 223.34 891.01 228 874.33 228 874.25 227.89 874.37 227.8 880.75 223.14 880.76 223.13 880.78 223.13 880.78 219.89 901.78 220.17"/><path class="cls-8" d="M874.25,227.89l-1.77,1.29.55-.55,1.62-1.63a36,36,0,0,0-14-3.25v-.84l20,.23-6.38,4.66Z"/><path class="cls-13" d="M873.53,253.64l-1.48-11.39.36-.05.53.76,1.56,1.48,1.33,1.27-.07,0,.55,6.37Z"/><polygon class="cls-13" points="891.01 230.96 870.91 230.77 872.47 229.19 872.48 229.18 874.25 227.89 874.33 228 891.01 228 891.01 230.96"/><path class="cls-10" d="M891,231h.5L898,231l.75.67,1.41,1.24-.08.06.3,3.62-15.26.16-13.75.14-.75-5.81c-.35-.12-.71-.24-1.07-.34h.06c.34.1.67.2,1,.32l.31-.31Z"/><path class="cls-9" d="M874.65,227,873,228.63l-.55.55h0l-2.15,1.58h-.73a33.49,33.49,0,0,0-5.41-1.2c-.58-.07-1.15-.13-1.71-.16a21.77,21.77,0,0,0-2.67,0c-.31,0-.62,0-.92.06s-.57.05-.85.09l-1,.16a15.47,15.47,0,0,0-3.27.94l-.15.06a13.55,13.55,0,0,0-3,1.73l-1.4-1.25-.66-.58-1-.9-.56-.76a19.9,19.9,0,0,1,13.7-5.16A36,36,0,0,1,874.65,227Z"/><polygon class="cls-12" points="861.58 370.24 847.67 237.14 850.93 237.11 851.35 242.03 862.13 370.24 861.58 370.24"/><polygon class="cls-8" points="847.67 237.14 861.58 370.24 833.76 370.28 819.25 239.31 818.97 236.77 847.67 237.14"/><path class="cls-7" d="M873.53,253.64l8.32,63.85,6.87,52.7h-2.39l-24.2,0L851.35,242l-.42-4.92-.39-4.65.07-.06.07.06a13,13,0,0,1,3-1.79l.16-.06a15.34,15.34,0,0,1,3.19-.94l1-.16c.28,0,.56-.07.85-.09s.61,0,.92-.06a21.77,21.77,0,0,1,2.67,0c.57,0,1.15.1,1.73.18a31.28,31.28,0,0,1,5.33,1.18c.36.1.72.22,1.07.34l.75,5.81.38,2.89.32,2.45Z"/><polygon class="cls-11" points="853.87 219.53 853.87 222.69 853.67 222.81 853.67 222.81 853.64 222.82 853.64 222.82 846.64 227.2 846.23 227.46 841.6 230.35 841.49 227.46 841.58 227.4 846.33 224.3 848.68 222.77 848.69 222.77 848.7 222.75 853.65 219.52 853.66 219.52 853.87 219.53"/><path class="cls-10" d="M847.67,237.14l-.68-6.59,1.56,0,.66.58,1.4,1.25-.07.06.39,4.65Z"/><path class="cls-8" d="M853.64,222.83l7.06.08v.84a19.9,19.9,0,0,0-13.7,5.16l.56.76,1,.9-1.56,0-5.38-.05v-.15l4.63-2.89.41-.26,7-4.37Z"/><polygon class="cls-8" points="826.91 222.51 826.96 222.51 826.96 219.17 845.82 219.42 853.65 219.52 848.7 222.75 848.69 222.77 848.68 222.77 846.33 224.3 841.58 227.4 821.79 227.16 826.9 222.52 826.91 222.51"/><polygon class="cls-13" points="841.37 230.5 841.36 230.5 818.55 230.29 820.76 228.11 820.83 228.04 821.79 227.16 841.58 227.4 841.49 227.46 841.6 230.35 841.61 230.5 841.6 230.5 841.37 230.5"/><path class="cls-8" d="M820.83,228l1.57-1.57a35.4,35.4,0,0,0-13.87-3.28v-.88l18.36.21-5.11,4.64Z"/><path class="cls-10" d="M841.36,230.5h.25l5.38.05.68,6.59-28.7-.37-.69-6.19c-.31-.11-.63-.21-.94-.3h.09l.85.28.27-.27Z"/><path class="cls-9" d="M822.4,226.47,820.83,228l-2.47,2.25h-.93a32.21,32.21,0,0,0-4.15-1l-.57-.09-.77-.12h0c-.58-.08-1.16-.14-1.72-.18a21.4,21.4,0,0,0-2.77,0,12.25,12.25,0,0,0-1.37.11l-.37,0c-.37,0-.74.12-1.11.19a16.38,16.38,0,0,0-3.17.94l0,0a13.3,13.3,0,0,0-3,1.73L797,230.61l-.58-.53-1-1-.54-.76a20.07,20.07,0,0,1,13.73-5.18A35.4,35.4,0,0,1,822.4,226.47Z"/><polygon class="cls-8" points="798.89 241.54 807.27 370.32 776.92 370.37 764.69 238.24 764.49 236.08 798.57 236.51 798.89 241.54"/><polygon class="cls-11" points="799.5 222.19 799.58 222.19 799.56 222.21 794.02 226.83 794.01 226.83 790.32 229.91 789.81 226.92 789.98 226.78 799.5 218.85 799.5 222.19"/><polygon class="cls-8" points="799.5 218.8 799.5 218.85 789.98 226.78 789.93 226.78 767.09 226.5 771.71 221.88 771.72 221.87 771.51 221.87 771.51 218.43 799.5 218.8"/><path class="cls-7" d="M819.25,239.31l14.51,131-26.49,0L798.9,241.54l-.33-5-.3-4.58.08-.06.06.06a13,13,0,0,1,3-1.79l0,0a16.18,16.18,0,0,1,3.1-.94c.37-.07.74-.14,1.11-.19l.37,0a12.25,12.25,0,0,1,1.37-.11,21.4,21.4,0,0,1,2.77,0c.58,0,1.16.11,1.74.18l.77.12.57.09a34.54,34.54,0,0,1,4.06,1c.31.09.63.19.94.3l.69,6.19Z"/><path class="cls-10" d="M797,230.61l1.38,1.26-.08.06.3,4.58-34.08-.43-.58-6.3,26,.24h.4l6.06.06Z"/><path class="cls-8" d="M794,226.83h0l5.54-4.62,9,.1v.88a20.07,20.07,0,0,0-13.73,5.18l.54.76,1,1-6.06-.06,0-.11Z"/><polygon class="cls-13" points="789.81 226.92 790.32 229.91 790.19 230.02 790.18 230.02 789.93 230.02 763.91 229.78 763.9 229.69 767.09 226.5 789.93 226.78 789.98 226.78 789.81 226.92"/><path class="cls-8" d="M763.89,229.48,766.4,227l1.68-1.64a35.07,35.07,0,0,0-13.82-3.28v-.43l17.44.2-4.62,4.62-3.19,3.19,0-.18a32.35,32.35,0,0,0-6.31-1.54c-.59-.08-1.16-.14-1.73-.18.56,0,1.13.09,1.71.17A33.62,33.62,0,0,1,763.89,229.48Z"/><path class="cls-9" d="M749.44,228.27h0l-.12,0-.06,0h0a14.28,14.28,0,0,0-2.21.72c-.41.17-.8.35-1.19.55l-3.17,0-.06-.06-1.6-1.48-.53-.76a20.42,20.42,0,0,1,13.82-5.18,35.07,35.07,0,0,1,13.82,3.28L766.4,227l-2.51,2.45a33.62,33.62,0,0,0-6.34-1.52c-.58-.08-1.15-.13-1.71-.17a22.39,22.39,0,0,0-2.83,0c-.43,0-.85.06-1.27.11l-.41,0-1,.16-.1,0-.15,0H750l-.15,0h-.05l-.14,0-.07,0h0Z"/><polygon class="cls-8" points="717.43 370.46 707.67 237.66 707.5 235.35 744.08 235.81 744.3 240.46 750.37 370.4 717.43 370.46"/><path class="cls-7" d="M764.69,238.24l12.23,132.12-26.55,0L744.3,240.46l-.22-4.65-.24-5,.09-.06.05.06a14.19,14.19,0,0,1,1.91-1.24c.38-.2.77-.38,1.17-.55l.43-.17.06,0,.12,0,.14,0,.05,0,.08,0,.42-.14.42-.13.08,0,.09,0,.23-.07h.06l.06,0,.12,0,.13,0h0l.07,0,.14,0h.05l.15,0h.06l.15,0,.1,0,1-.16.41,0c.42-.05.84-.09,1.27-.11a22.39,22.39,0,0,1,2.83,0c.57,0,1.14.1,1.73.18a32.35,32.35,0,0,1,6.31,1.54l0,.18-.09.09h.1l.58,6.3Z"/><polygon class="cls-11" points="743.52 218.06 743.52 221.39 743.36 221.54 743.34 221.56 738.28 226.16 734.59 229.51 734.37 229.51 734.37 226.38 734.66 226.11 743.22 218.05 743.52 218.06"/><path class="cls-8" d="M741,228.05l1.6,1.48.06.06-8-.08,3.69-3.35,5.06-4.6h.15l10.78.12v.43a20.42,20.42,0,0,0-13.82,5.18Z"/><polygon class="cls-13" points="734.66 226.11 734.37 226.38 734.37 229.51 708.01 229.27 707.89 229.27 710.56 225.82 710.7 225.82 734.56 226.11 734.66 226.11"/><polygon class="cls-8" points="714.45 221.21 714.45 217.67 743.22 218.05 734.66 226.11 734.56 226.11 710.7 225.82 710.56 225.82 714.11 221.23 714.12 221.21 714.45 221.21"/><path class="cls-10" d="M707.89,229.27H708l26.36.24h.22l8,.08,1.3,1.2-.09.06.24,5-36.58-.46-.45-6.09Z"/><path class="cls-8" d="M707,228.88l2.55-2.49,1.7-1.66a34.19,34.19,0,0,0-13.44-3.14V221l16.26.19-3.55,4.59-2.67,3.45h-.84l0-.36a32.29,32.29,0,0,0-6.28-1.47l-.19,0,.18,0A31.94,31.94,0,0,1,707,228.88Z"/><path class="cls-8" d="M700.42,227.38l-.37,0c-.3,0-.59-.06-.88-.07C699.58,227.3,700,227.34,700.42,227.38Z"/><path class="cls-8" d="M697.85,221v.55a20.84,20.84,0,0,0-14.13,5.35l.51.76,1.45,1.36-6.2-.06h-.09l.09-.09,3.11-3.43,4.16-4.57Z"/><path class="cls-9" d="M697.19,227.24s0,0,0,0,0,0,0,0,0,0,0,0h-.47l-.8.05h-.21l-.33,0-.69.08-.73.12-.14,0a16.13,16.13,0,0,0-3.58,1.06c-.32.14-.65.29-1,.46l-3.56,0-1.45-1.36-.51-.76a20.84,20.84,0,0,1,14.13-5.35,34.19,34.19,0,0,1,13.44,3.14l-1.7,1.66L707,228.88a31.94,31.94,0,0,0-6.29-1.46l-.18,0-.14,0c-.42,0-.84-.08-1.25-.1h0c-.51,0-1-.05-1.52-.05h-.46Z"/><path class="cls-7" d="M697.16,227.24s0,0,0,0,0,0,0,0h.46c.5,0,1,0,1.52.05h0c.29,0,.58,0,.88.07l.7.08A32.29,32.29,0,0,1,707,228.9l0,.36.45,6.09.17,2.31,9.76,132.8-26.48,0L687.3,240.12l-.14-5-.13-4.61.08-.06.06.05a13.74,13.74,0,0,1,2.15-1.37c.31-.17.62-.31.94-.45a5.49,5.49,0,0,1,.51-.21l.54-.2.4-.13.06,0,.6-.18.17,0,.28-.07h0l.27-.07.53-.11.14,0,.14,0,.73-.12.69-.08.33,0h.21l.8-.05h.47S697.15,227.23,697.16,227.24Z"/><polygon class="cls-8" points="687.3 240.12 690.95 370.49 681.08 370.51 673.01 235 673.01 234.91 687.16 235.09 687.3 240.12"/><polygon class="cls-11" points="686.76 220.89 686.74 220.91 682.58 225.49 679.47 228.91 679.47 225.45 679.47 225.31 686.41 217.3 686.46 217.3 686.46 220.89 686.76 220.89"/><polygon class="cls-8" points="686.41 217.3 679.47 225.31 679.47 225.45 679.43 225.45 652.85 225.13 656.54 220.56 656.56 220.55 656.32 220.54 656.32 216.89 686.41 217.3"/><path class="cls-13" d="M679.47,225.45v3.46l-.09.09-29.3-.27.48-.56,1.4-1.64.42-.8h0l.48-.59h0l26.58.32Z"/><path class="cls-10" d="M679.38,229h.09l6.2.06.11.11,1.33,1.25-.08.06.13,4.61L673,234.9l-23.31-.29-.31-5,0,0,.74-.86Z"/><polygon class="cls-13" points="673.01 235 681.08 370.51 680.98 370.51 674.5 370.52 667.62 240.38 673.01 235"/><polygon class="cls-13" points="673.01 234.91 673.01 235 667.62 240.38 650.05 240.12 650 239.26 649.7 234.61 673.01 234.91"/><polygon class="cls-14" points="658.32 370.54 650.05 240.12 667.62 240.38 674.5 370.52 658.32 370.54"/><path class="cls-8" d="M656.24,220.56h.31l-3.7,4.57h0l-.48.59a20.88,20.88,0,0,0-12.17-3.93l0-1.41Z"/><path class="cls-7" d="M649.39,229.61l.31,5,.3,4.65,0,.86,8.27,130.42-26.37,0-2.37-130.77V239l-.09-4.63-.08-4.17a34.41,34.41,0,0,1,4.13-1.61l1-.29.5-.13.48-.11.55-.13a22,22,0,0,1,6.88-.43c.54.06,1.07.14,1.59.25a15.1,15.1,0,0,1,1.54.4,13.65,13.65,0,0,1,1.55.57,14.82,14.82,0,0,1,1.72.91l0,0Z"/><path class="cls-9" d="M652.37,225.72l-2.43,3h-.27l-2,0a11.76,11.76,0,0,0-1.57-.58,13.36,13.36,0,0,0-1.57-.4c-.52-.11-1-.19-1.59-.25a22,22,0,0,0-6.88.43l-.54.12-.49.12-.5.13-1,.29a35.6,35.6,0,0,0-4.11,1.58l-2.08-1.63-.72-.57-1.87-1.47c5.7-3.21,10.83-4.69,15.47-4.69A20.88,20.88,0,0,1,652.37,225.72Z"/><polygon class="cls-14" points="629.58 239.82 631.95 370.58 594.87 370.64 588.42 239.21 629.58 239.82"/><polygon class="cls-13" points="629.57 238.99 629.58 239.82 588.42 239.21 588.16 233.82 629.48 234.35 629.57 238.99"/><path class="cls-10" d="M629.4,230.15a35.6,35.6,0,0,1,4.11-1.58h0a34.41,34.41,0,0,0-4.13,1.61l.08,4.17-41.32-.53-.2-4.21,1.23-1.44h.54l32.95.3H623l4.37,0Z"/><polygon class="cls-11" points="628.57 220.24 625.31 224.8 625.31 224.8 624.32 226.18 622.95 228.11 622.95 224.77 622.98 224.77 628.33 216.69 628.33 220.22 628.58 220.22 628.57 220.24"/><polygon class="cls-8" points="626.6 227.95 627.32 228.52 622.95 228.48 622.95 228.11 624.32 226.18 624.73 226.48 626.6 227.95"/><path class="cls-8" d="M625.31,224.8l3.25-4.56,11.66.14,0,1.41c-4.64,0-9.77,1.48-15.47,4.69l-.41-.3,1-1.38Z"/><path class="cls-13" d="M623,224.77v3.34l-.27.37-32.95-.3h0l.86-1.64.6-.68-.17-.12.72-1.34,31,.38Z"/><polygon class="cls-8" points="628.33 216.52 628.33 216.69 622.95 224.77 622.79 224.77 591.74 224.39 591.74 224.39 594.15 219.84 593.81 219.83 593.82 219.82 593.88 219.82 594.09 219.82 594.09 216.07 628.33 216.52"/><path class="cls-7" d="M588.42,239.21l6.45,131.43-26.3,0-.5-131.77,0-5.35v-3.41a32.05,32.05,0,0,1,6.09-2.12,20,20,0,0,1,10.55.1,13.68,13.68,0,0,1,3.28,1.48l.2,4.21Z"/><path class="cls-9" d="M590.59,226.53l-1.4,1.64L588,229.61a13.68,13.68,0,0,0-3.28-1.48,20,20,0,0,0-10.55-.1,32.05,32.05,0,0,0-6.09,2.12l-2.8-2.2-1.87-1.47c11.21-6.31,20.22-5.94,27.65-.75Z"/><polygon class="cls-14" points="535.4 370.73 530.86 238.36 568.07 238.91 568.57 370.68 535.4 370.73"/><polygon class="cls-13" points="568.05 233.56 568.07 238.91 530.86 238.36 530.85 238.13 530.68 233.08 568.05 233.56"/><polygon class="cls-11" points="565.97 219.52 564 224.06 562.32 227.92 562.12 227.92 562.12 224.23 562.21 224.04 565.85 215.69 565.89 215.69 565.89 219.5 565.98 219.5 565.97 219.52"/><path class="cls-8" d="M562.32,227.92l1.71-3.86,2-4.54,27.78.31h0l-2.35,4.55h.28l-.72,1.34c-7.43-5.19-16.44-5.56-27.65.75l1.87,1.47Z"/><polygon class="cls-10" points="531.3 227.64 531.87 227.64 532.02 227.64 562.12 227.92 562.32 227.92 565.24 227.95 568.04 230.15 568.05 233.56 530.68 233.08 530.52 228.54 531.3 227.64"/><polygon class="cls-7" points="656.32 216.89 656.32 220.54 656.25 220.54 628.58 220.22 628.33 220.22 628.33 216.69 628.33 216.52 628.33 216.5 593.88 216.04 593.88 216.06 593.88 219.82 593.82 219.82 593.6 219.82 565.98 219.5 565.89 219.5 565.89 215.69 565.89 215.68 565.86 215.68 534.67 215.27 534.67 215.27 534.67 219.14 534.46 219.14 507.21 218.83 507.21 218.22 507.21 214.99 507.21 214.91 475.99 214.49 475.99 217.23 475.87 218.47 447.46 218.14 447.46 214.12 447.46 214.11 416.78 213.7 416.78 213.72 416.78 216.69 416.78 217.79 387.76 217.45 387.71 217.45 387.71 213.34 387.71 213.31 358.11 212.92 358.11 212.93 358.11 212.94 358.11 216.69 358.11 217.11 344.8 216.96 328.53 216.77 328.5 216.77 328.5 212.56 328.5 212.53 304.28 212.21 304.28 212.24 304.28 212.39 304.28 216.5 273.59 216.14 273.59 211.83 277.74 211.76 277.85 189.7 277.9 179.55 344.83 180.67 842.65 189.02 920.08 190.32 920.87 194 926.48 220.42 928.68 220.45 928.68 223.68 901.78 223.37 901.78 223.15 901.78 220.46 901.78 220.17 901.78 220.09 880.78 219.82 880.78 219.89 880.78 223.13 880.76 223.13 853.87 222.81 853.87 222.69 853.87 219.53 853.87 219.46 853.76 219.46 845.82 219.36 826.96 219.11 826.96 219.17 826.96 222.51 826.91 222.51 799.58 222.19 799.5 222.19 799.5 218.85 799.5 218.8 799.5 218.75 771.51 218.38 771.51 218.43 771.51 221.87 743.52 221.54 743.52 221.39 743.52 218.06 743.52 218.01 743.27 218.01 714.45 217.63 714.45 217.67 714.45 221.21 714.12 221.21 686.76 220.89 686.46 220.89 686.46 217.3 686.46 217.26 686.44 217.26 656.32 216.87 656.32 216.89"/><polygon class="cls-8" points="534.67 219.14 534.67 215.27 565.85 215.69 562.21 224.04 533.21 223.69 533.08 223.69 534.46 219.16 534.46 219.14 534.67 219.14"/><path class="cls-13" d="M562.12,227.92l-30.1-.28h-.15l.31-1,1-1.17.43-.8c-.23-.17-.47-.33-.71-.49l.15-.48h.13l29,.35-.08.19Z"/><path class="cls-9" d="M507.83,226.87,506,225.4c10.94-6.11,19.73-6,26.95-1.23.24.16.48.32.71.49l-.43.8-1,1.17-.4.46-.48.55-.78.9a12,12,0,0,0-1.74-.92,13,13,0,0,0-1.51-.57,20.17,20.17,0,0,0-10.55-.1c-.64.15-1.29.33-1.94.53a33.61,33.61,0,0,0-4.18,1.59l-2.08-1.65Z"/><path class="cls-7" d="M530.85,238.36l4.55,132.37-26.35,0,1.45-132.94.06-5,0-3.76a33.61,33.61,0,0,1,4.18-1.59c.65-.2,1.3-.38,1.94-.53a20.17,20.17,0,0,1,10.55.1,13,13,0,0,1,1.51.57,12,12,0,0,1,1.74.92l.16,4.54.17,5Z"/><polygon class="cls-8" points="475.9 370.82 471.15 236.61 471.15 232.32 510.56 232.83 510.5 237.83 509.05 370.77 475.9 370.82"/><path class="cls-8" d="M507.83,226.87l.69.55-3.46,0h-.24l.24-.91.81-3.12,1.18-4.52,27.41.32-1.38,4.53-.15.48c-7.22-4.73-16-4.88-26.95,1.23Z"/><polygon class="cls-10" points="475.05 227.12 475.12 227.12 504.82 227.39 505.06 227.39 508.52 227.42 510.6 229.07 510.56 232.83 471.15 232.32 471.15 228.54 473.47 227.1 473.48 227.1 475.05 227.12"/><polygon class="cls-7" points="698.83 133.34 498.44 128.15 600.88 121.96 698.84 132.99 698.83 133.34"/><polygon class="cls-7" points="932.46 174.71 932.46 184.4 842.03 183.08 344.84 175.83 268.21 174.71 268.21 161.79 344.85 163.28 840.97 172.93 932.46 174.71"/><polygon class="cls-8" points="475.87 218.47 475.99 218.47 475.99 217.23 475.99 214.49 507.21 214.91 507.21 214.99 505.06 223.25 505.06 223.35 505 223.35 475.52 222.99 475.44 222.99 475.87 218.49 475.87 218.47"/><polygon class="cls-13" points="504.82 227.39 475.12 227.12 475.05 227.12 475.15 226.07 475.44 222.99 475.52 222.99 505 223.35 505.06 223.35 505.06 226.48 504.82 227.39"/><path class="cls-9" d="M447.46,225.47c5.92-7.16,22.07-7.16,27.69.6l-1.67,1h0l-2.32,1.44a21.56,21.56,0,0,0-2.65-1.48c-4.51-2.12-8.75-2-13.37-.13a31.82,31.82,0,0,0-3.36,1.61l-2.33-1.66Z"/><path class="cls-7" d="M449.65,370.86l2.12-135.33v-7a31.82,31.82,0,0,1,3.36-1.61c4.62-1.85,8.86-2,13.37.13a21.56,21.56,0,0,1,2.65,1.48v8.07l4.75,134.21Z"/><polygon class="cls-10" points="451.77 228.54 451.77 232.07 412.89 231.57 412.95 228.48 415.59 226.57 417.72 226.59 447.46 226.86 449.44 226.88 451.77 228.54"/><polygon class="cls-8" points="451.77 235.53 449.65 370.86 414.8 370.91 412.78 236.47 412.89 231.57 451.77 232.07 451.77 235.53"/><path class="cls-8" d="M475.15,226.07c-5.62-7.76-21.77-7.76-27.69-.6v-7.31l28.41.33-.43,4.5Z"/><polygon class="cls-13" points="447.46 225.47 447.46 226.86 417.72 226.59 417.31 222.29 447.46 222.65 447.46 225.47"/><polygon class="cls-8" points="447.46 218.14 447.46 218.16 447.46 222.65 417.31 222.29 416.89 217.8 416.88 217.79 416.78 216.69 416.78 213.72 447.46 214.12 447.46 218.14"/><path class="cls-8" d="M416.78,217.8h.11l.42,4.49.41,4.3-2.13,0,1.44-1c-5.46-7.74-21.64-7.75-27.72-.59h-.06l-.61-3-.88-4.48Z"/><path class="cls-9" d="M417,225.53l-1.44,1L413,228.48v-.37a20.46,20.46,0,0,0-2.73-1.59c-4.39-2.12-8.57-2-13.15-.13a30.81,30.81,0,0,0-3.53,1.72v.07l-2.41-1.84-1.83-1.4C395.39,217.78,411.57,217.79,417,225.53Z"/><path class="cls-7" d="M413,228.11v.37l-.06,3.09-.11,4.9,2,134.44-26.23,0,4.82-135.61.09-4,.07-3.13h0v-.07a30.81,30.81,0,0,1,3.53-1.72c4.58-1.85,8.76-2,13.15.13A20.46,20.46,0,0,1,413,228.11Z"/><polygon class="cls-10" points="393.55 228.19 393.48 231.32 355.64 230.84 355.83 227.07 356.89 226.03 361.15 226.07 389.5 226.32 389.53 226.32 391.14 226.34 393.55 228.18 393.55 228.19"/><polygon class="cls-8" points="393.39 235.35 388.57 370.96 353.46 371.01 355.42 235.12 355.64 230.84 393.48 231.32 393.39 235.35"/><polygon class="cls-8" points="389.53 226.32 389.25 224.95 389.31 224.94 391.14 226.34 389.53 226.32"/><polygon class="cls-8" points="387.76 217.47 388.64 221.95 361.34 221.61 361.34 221.25 359.74 217.15 359.74 217.13 358.11 212.94 387.71 213.34 387.71 217.45 387.71 217.47 387.76 217.47"/><polygon class="cls-13" points="389.25 224.95 389.53 226.32 389.5 226.32 361.15 226.07 359.84 221.6 361.34 225.84 361.34 221.61 388.64 221.95 389.25 224.95"/><path class="cls-8" d="M359.84,221.6l1.31,4.47-4.26,0,3.1-1.85c-2.67-3.94-8.19-5.88-13.78-5.88V217l11.89.14h.15Z"/><polygon class="cls-11" points="359.74 217.15 361.34 221.25 361.34 221.61 361.34 225.84 359.84 221.6 358.26 217.13 358.26 217.11 358.11 216.69 358.11 212.94 358.11 212.94 359.74 217.13 359.74 217.15"/><path class="cls-7" d="M327.15,371.05l6.43-98.9L336.06,234l.22-3.42.3-4.74h0c6.57-3,12.14-3.48,18.1.17.39.23.77.48,1.16.75l0,.31-.19,3.77-.22,4.28-2,135.89Z"/><path class="cls-9" d="M346.21,218.3c5.59,0,11.11,1.94,13.78,5.88l-3.1,1.85-1.06,1,0-.31c-.39-.27-.77-.52-1.16-.75-6-3.65-11.53-3.2-18.1-.17h0l-4.28-2.25C335.37,220.09,340.82,218.3,346.21,218.3Z"/><polygon class="cls-9" points="837.72 141.87 344.85 128.95 344.65 128.95 342.5 124.11 498.44 128.15 698.83 133.34 841.49 137.03 837.72 141.87"/><polygon class="cls-7" points="344.85 128.95 837.72 141.87 840.97 172.93 344.85 163.28 344.85 128.95"/><path class="cls-10" d="M301.59,230.1v-3.72l1.44-.65,6.63.12,0,0-.07-.13.13-.08,22.83.21h.27l3.77,0h0l-.3,4.74-22.9-.29-11.52-.15h-.27Z"/><path class="cls-8" d="M346.21,218.3c-5.39,0-10.84,1.79-13.93,5.29l4.28,2.25-3.77,0-2.28-4.56-2-4.45,16.26.18,1.42,0Z"/><path class="cls-10" d="M336.28,230.59l-.22,3.42-2.48,38.14c-.06-.13-1.33-2.78-3.22-6.69l.63-.22a11.8,11.8,0,0,0-1.19-.95L316.86,237.5l-3.48-7.2Z"/><polygon class="cls-13" points="330.51 221.24 332.79 225.8 332.52 225.8 309.69 225.59 310.2 221 330.51 221.24"/><path class="cls-12" d="M324,371.05l1.79-100.89v-3l1.16-.52,3.39-1.18c1.89,3.91,3.16,6.56,3.22,6.69l-6.43,98.9Z"/><path class="cls-10" d="M330.36,265.46,327,266.64l-1.16.52c-.34-.2-.67-.38-1-.56a17.81,17.81,0,0,0-6-2.14h0l0-2.27v-1.76a25.63,25.63,0,0,1,11,3.87Z"/><polygon class="cls-8" points="328.55 216.79 330.51 221.24 310.2 221 307.14 216.54 307.13 216.53 304.28 212.39 304.28 212.24 328.5 212.56 328.5 216.77 328.5 216.79 328.55 216.79"/><path class="cls-13" d="M329.8,264.29a25.63,25.63,0,0,0-11-3.87v-1.6l1.31-.59,3.76-2.2c-3.29-2.57-8.61-4.36-13.81-4.88l.13-7.45v-3.55l1.38-.63,4.49-1.89.79-.13Z"/><path class="cls-11" d="M323.88,256l-3.76,2.2-1.31.59c-.37-.22-.76-.43-1.12-.63a19.16,19.16,0,0,0-7.71-2.51l.09-4.53C315.27,251.67,320.59,253.46,323.88,256Z"/><path class="cls-11" d="M318.77,264.46a17.81,17.81,0,0,1,6,2.14c.34.18.67.36,1,.56v3L324,371.05h-7.14Z"/><path class="cls-8" d="M307.93,371.08l1.66-92.87h0l.22-12.76.08-4.54.09-5.22a19.16,19.16,0,0,1,7.71,2.51c.36.2.75.41,1.12.63v3.36l0,2.27h0l-1.89,106.6Z"/><path class="cls-10" d="M316.07,237.63c-3.3-2.85-8.94-4.86-14.52-5.51l0-2h.27l11.52.15,3.48,7.2Z"/><path class="cls-8" d="M304.28,216.69l5.23,8.9.05.08.07.13a2.66,2.66,0,0,0-.16-.22c-3.44-4.71-12.84-7.86-21-7.86v-1.39l15.75.18Z"/><path class="cls-8" d="M309.66,225.85l-6.63-.12,4.48-2s1.83,1.78,2,1.89a2.66,2.66,0,0,1,.16.22Z"/><polygon class="cls-11" points="307.13 216.53 307.14 216.54 310.2 221 309.69 225.59 309.56 225.67 309.51 225.59 304.28 216.69 304.28 216.51 304.28 216.5 304.28 212.39 307.13 216.53"/><path class="cls-8" d="M301.55,232.12c5.58.65,11.22,2.66,14.52,5.51l-4.49,1.89-1.38.63-1.19-.66a20.88,20.88,0,0,0-7.54-2.6Z"/><path class="cls-9" d="M301.47,236.89a20.88,20.88,0,0,1,7.54,2.6l1.19.66v3.55l-.13,7.45-.09,4.53-.09,5.22-.08,4.54-.22,12.76h0l-1.66,92.87h-8.85L301,266v0l.16-8.91.1-5.3Z"/><path class="cls-7" d="M272.74,371.13l9.32-140.76.34-5h.3l.05-.6c6.54-3,11.67-2.28,17.59.91l1.25.7v3.77l0,2-.08,4.77-.26,14.83-.1,5.3-.16,8.91v0l-1.87,105.13H283.15Z"/><path class="cls-9" d="M288.52,217.72c8.11,0,17.51,3.15,21,7.86-.13-.11-1.93-1.89-2-1.89l-4.48,2-1.44.65-1.25-.7c-5.92-3.19-11-3.93-17.59-.91l-.3-.15-2.93-1.47-2.69-1.61C279.17,218.87,283.61,217.72,288.52,217.72Z"/><polygon class="cls-8" points="842.65 189.02 344.83 180.67 277.9 179.55 277.85 189.7 268.21 174.71 344.84 175.83 842.03 183.08 932.46 184.4 920.87 194 920.08 190.32 842.65 189.02"/><polygon class="cls-10" points="282.4 225.37 282.06 230.37 278.98 225.31 282.4 225.37"/><path class="cls-8" d="M279,225.31l-5.38-9.15,14.93.17v1.39c-4.91,0-9.35,1.15-11.69,3.82l2.69,3.77Z"/><polygon class="cls-8" points="279.52 225.31 276.83 221.54 279.52 223.15 282.45 224.62 282.75 224.77 282.7 225.37 282.4 225.37 278.98 225.31 279.52 225.31"/></g><path class="cls-15" d="M327.7,471.88a51.84,51.84,0,0,1-12.16,33.06h-106a51.79,51.79,0,0,1-12.16-33.06c0-31.39,29.16-56.83,65.13-56.83S327.7,440.49,327.7,471.88Z"/><path class="cls-15" d="M1002.71,473.49a66,66,0,0,1-8.59,33.07H919.25a66,66,0,0,1-8.59-33.07c0-31.38,20.61-56.82,46-56.82S1002.71,442.11,1002.71,473.49Z"/><path class="cls-16" d="M416.55,503.33H307.87a27.28,27.28,0,0,1-6.55-17.52c0-12.79,9.34-23.76,22.64-28.4,4.36-18.86,18.5-32.67,35.27-32.67,12.76,0,24,8,30.56,20.14a20.08,20.08,0,0,1,19.8,4.3C421.47,459.7,424.15,482.87,416.55,503.33Z"/><path class="cls-17" d="M1040,430.64c-4,10.69-9.87,19.06-15.82,23.32-.64,2.07-1.34,4-2.08,5.77H986.76A23.43,23.43,0,0,1,978,441.05c0-10.16,6-18.74,14.17-21.58.15-28.08,8.26-50.71,18.23-50.71,6.41,0,12,9.36,15.3,23.51,3.86-2.5,7.7-3.24,11-1.71C1045.18,394.56,1046.67,412.5,1040,430.64Z"/><path class="cls-16" d="M209,479.72a73.34,73.34,0,0,1-6.54,11.77H-16.65A51.71,51.71,0,0,1-18.42,478c0-30.62,26.63-55.44,59.48-55.44,2.12,0,4.22.1,6.28.3a70.53,70.53,0,0,1,110.94-6.56c11.39-7,24.14-9,35.19-4.08C214.41,421.51,221.35,451.71,209,479.72Z"/><g id="Layer_11" data-name="Layer 11"><path class="cls-18" d="M280,410.5c0,31.2-24.8,42.5-56,42.5s-57-11.3-57-42.5a56.5,56.5,0,0,1,113,0Z"/><circle cx="208" cy="367" r="4"/><circle cx="230" cy="367" r="4"/></g><polygon class="cls-19" points="338.41 459.95 338.41 474.49 234.52 474.49 234.52 438.96 338.41 459.95"/><polygon class="cls-20" points="332.49 486.33 318.81 645.17 211.37 641.89 223.75 491.17 332.49 486.33"/><polygon class="cls-21" points="234.52 474.49 234.52 475.02 234.16 475.04 234.52 474.49"/><polygon class="cls-21" points="234.52 438.96 234.52 474.49 234.16 475.04 234.13 475.08 -0.18 480.45 -0.18 442.19 234.52 438.96"/><polygon class="cls-22" points="234.52 475.02 234.52 474.49 338.41 474.49 332.49 486.33 223.75 491.17 234.13 475.08 234.16 475.04 234.52 475.02"/><polygon class="cls-23" points="234.13 475.08 223.75 491.17 -0.71 497.63 -0.18 480.94 -0.18 480.45 234.13 475.08"/><polygon class="cls-19" points="223.75 491.17 211.37 641.89 -0.71 641.89 -0.71 497.63 223.75 491.17"/><polygon class="cls-1" points="1034.47 443.85 1034.47 447.94 1034.19 447.95 425.42 454.08 425.39 454.08 425.39 452.46 425.39 448.96 431.51 448.89 449.35 448.7 468.4 448.28 483.53 448.16 483.53 447.94 861.41 443.85 890.74 443.85 892.63 443.85 1034.47 443.85"/><polygon class="cls-1" points="1034.19 447.95 1034.2 448.7 1034.12 459.49 414.69 469.15 414.63 469.15 415.14 464.34 416.25 454.08 425.39 454.08 425.42 454.08 1034.19 447.95"/><polygon class="cls-1" points="1034.12 459.49 1033.96 480.2 393.63 491.22 394.23 486.33 396.34 469.15 414.63 469.15 414.69 469.15 1034.12 459.49"/><polygon class="cls-1" points="1033.96 480.2 1033.68 518.72 308.05 534.28 351.65 512.34 393.63 491.22 1033.96 480.2"/><polygon class="cls-1" points="1033.68 518.72 1033.57 534.34 308.05 552.59 308.05 534.28 1033.68 518.72"/><polygon class="cls-1" points="1033.57 534.34 1033.52 541.34 298.36 561.2 308.05 552.59 1033.57 534.34"/><polygon class="cls-1" points="1033.52 541.34 1033.38 561.26 298.36 580.04 298.36 561.2 1033.52 541.34"/><polygon class="cls-1" points="1033.38 561.26 1033.31 570.95 289.75 589.73 298.36 580.04 1033.38 561.26"/><polygon class="cls-1" points="1033.31 570.95 1033.17 589.8 289.75 609.64 289.75 589.73 1033.31 570.95"/><polygon class="cls-1" points="884.55 374.41 882.4 378.18 859.25 378.18 858.72 373.87 884.55 374.41"/><polygon class="cls-1" points="884.55 381.95 858.72 381.95 859.25 378.18 882.4 378.18 884.55 381.95"/><polygon class="cls-1" points="882.94 385.72 886.17 433.62 892.63 439.01 892.63 443.85 890.74 443.85 861.41 443.85 858.72 385.72 882.94 385.72"/><polygon class="cls-1" points="858.72 385.72 858.72 381.95 884.55 381.95 882.94 385.72 858.72 385.72"/><path class="cls-1" d="M855,344.81,858.72,369H863V344.81ZM870.05,369l1.31-24.22h-3V369Zm-15.83,2.51-3.48-29.34,2-2.18-3.28-2.26,2.94-3.27,21,.28,3.35,3.37-3,2.17,1.94,1.68-3,28.7,11.93,3.72-25.83-.54-15.62,4.85Z"/><polygon class="cls-1" points="858.72 373.87 859.25 378.18 845.8 381.95 843.11 378.72 858.72 373.87"/><polygon class="cls-1" points="858.72 385.72 861.41 443.85 816.11 395.48 816.19 395.41 848.03 388.15 858.72 385.72"/><polygon class="cls-1" points="843.19 385.72 845.8 381.95 859.25 378.18 858.72 381.95 843.19 385.72"/><polygon class="cls-1" points="843.19 385.72 858.72 381.95 858.72 385.72 848.03 388.15 816.19 395.41 816.11 395.48 816.01 395.38 803.38 395.38 843.19 385.72"/><polygon class="cls-1" points="803.38 395.38 816.01 395.38 816.11 395.48 861.41 443.85 483.53 447.94 483.53 442.24 480.57 439.28 480.57 439.01 480.57 395.38 803.38 395.38"/><polygon class="cls-1" points="483.53 442.24 449.08 442.24 452.04 439.28 452.04 439.01 480.57 439.01 480.57 439.28 483.53 442.24"/><polygon class="cls-1" points="480.84 378.18 482.45 381.95 450.15 381.95 451.77 378.18 480.84 378.18"/><polygon class="cls-1" points="482.45 381.95 480.57 385.72 452.04 385.72 450.15 381.95 482.45 381.95"/><polygon class="cls-1" points="481.91 373.87 480.84 378.18 451.77 378.18 450.69 373.87 481.91 373.87"/><polygon class="cls-1" points="452.04 439.01 452.04 385.72 480.57 385.72 480.57 395.38 480.57 439.01 452.04 439.01"/><polygon class="cls-1" points="449.08 448.43 449.08 442.24 483.53 442.24 483.53 447.94 468.4 448.28 449.08 448.43"/><path class="cls-1" d="M469,344.81V369h2.7l2.15-24.22Zm-10.22,0L460.92,369h2.69V344.81Zm-6.46-6.46,3.23-3.23h21.53l3.23,3.23-3.23,2.15,2.15,2.15-4.3,26.92,7,4.3H450.69l7-4.3-4.31-26.92,2.16-2.15Z"/><polygon class="cls-1" points="425.39 448.96 425.39 452.46 414.63 452.46 411.4 452.46 411.4 446.54 425.39 446.54 425.39 448.96"/><polygon class="cls-1" points="414.63 452.46 425.39 452.46 425.39 454.08 416.25 454.08 415.14 464.34 414.8 464.31 414.63 452.46"/><polygon class="cls-1" points="415.14 464.34 414.63 469.15 396.34 469.15 394.23 486.33 394.17 486.33 393.63 464.31 396.33 464.31 414.8 464.31 415.14 464.34"/><polygon class="cls-1" points="414.63 452.46 414.8 464.31 396.33 464.31 396.33 452.46 411.4 452.46 414.63 452.46"/><polygon class="cls-1" points="351.65 504.14 394.17 486.36 394.23 486.33 393.63 491.22 351.65 512.34 351.65 504.14"/><polygon class="cls-1" points="394.17 486.33 394.17 486.36 351.65 504.14 310.2 504.14 362.95 486.38 394.17 486.33"/><polygon class="cls-1" points="393.63 464.31 394.17 486.33 362.95 486.38 362.95 464.31 393.63 464.31"/><polygon class="cls-1" points="351.65 504.14 351.65 512.34 310.2 512.75 310.2 504.14 351.65 504.14"/><g class="cls-4"><polygon class="cls-24" points="1034.29 444.12 1034.29 448.21 1034.01 448.21 425.24 454.34 425.21 454.34 425.21 452.73 425.21 449.23 431.33 449.16 449.17 448.96 468.22 448.54 483.35 448.42 483.35 448.21 861.23 444.12 890.56 444.12 892.45 444.12 1034.29 444.12"/><polygon class="cls-25" points="1034.01 448.21 1034.02 448.96 1033.94 459.76 414.51 469.41 414.45 469.41 414.96 464.61 416.07 454.34 425.21 454.34 425.24 454.34 1034.01 448.21"/><polygon class="cls-24" points="1033.94 459.76 1033.79 480.46 393.45 491.48 394.05 486.59 396.16 469.41 414.45 469.41 414.51 469.41 1033.94 459.76"/><polygon class="cls-26" points="892.45 439.27 892.45 444.12 890.56 444.12 861.23 444.12 858.53 385.98 882.76 385.98 885.99 433.89 892.45 439.27"/><polygon class="cls-26" points="884.37 374.68 882.22 378.44 859.07 378.44 858.53 374.14 884.37 374.68"/><polygon class="cls-27" points="882.22 378.44 884.37 382.21 858.53 382.21 859.07 378.44 882.22 378.44"/><polygon class="cls-28" points="884.37 382.21 882.76 385.98 858.53 385.98 858.53 382.21 884.37 382.21"/><path class="cls-29" d="M884.37,374.68l-25.83-.54L842.93,379,854,371.8l-3.48-29.34,2-2.18L849.24,338l2.94-3.27,21,.29,3.34,3.36-3,2.17,1.94,1.68-3,28.7Zm-14.5-5.39,1.32-24.22h-3v24.22Zm-7,0V345.07h-8.07l3.77,24.22Z"/><polygon class="cls-27" points="858.53 385.98 861.23 444.12 815.93 395.74 816.01 395.67 847.85 388.41 858.53 385.98"/><polygon class="cls-26" points="858.53 374.14 859.07 378.44 845.62 382.21 842.92 378.98 858.53 374.14"/><polygon class="cls-27" points="859.07 378.44 858.53 382.21 843.01 385.98 845.62 382.21 859.07 378.44"/><polygon class="cls-26" points="816.01 395.67 815.93 395.74 815.83 395.64 803.21 395.64 843.01 385.98 858.53 382.21 858.53 385.98 847.85 388.41 816.01 395.67"/><polygon class="cls-30" points="1033.34 541.6 298.18 561.46 307.87 552.85 1033.39 534.6 1033.34 541.6"/><polygon class="cls-12" points="307.87 534.55 1033.51 518.98 1033.39 534.6 307.87 552.85 307.87 534.55"/><polygon class="cls-30" points="1033.51 518.98 307.87 534.55 351.47 512.61 393.45 491.48 1033.79 480.46 1033.51 518.98"/><polygon class="cls-12" points="1032.99 590.06 289.57 609.91 289.57 589.99 1033.13 571.22 1032.99 590.06"/><polygon class="cls-30" points="298.18 580.3 1033.2 561.53 1033.13 571.22 289.57 589.99 298.18 580.3"/><polygon class="cls-12" points="1033.2 561.53 298.18 580.3 298.18 561.46 1033.34 541.6 1033.2 561.53"/><polygon class="cls-26" points="483.35 442.5 483.35 448.21 468.22 448.54 448.9 448.69 448.9 442.5 483.35 442.5"/><polygon class="cls-27" points="483.35 442.5 448.9 442.5 451.86 439.54 451.86 439.27 480.39 439.27 480.39 439.54 483.35 442.5"/><polygon class="cls-27" points="480.66 378.44 482.27 382.21 449.98 382.21 451.59 378.44 480.66 378.44"/><polygon class="cls-28" points="482.27 382.21 480.39 385.98 451.86 385.98 449.98 382.21 482.27 382.21"/><polygon class="cls-26" points="481.73 374.14 480.66 378.44 451.59 378.44 450.51 374.14 481.73 374.14"/><path class="cls-29" d="M481.73,374.14H450.51l7-4.31-4.31-26.91,2.16-2.16-3.23-2.15,3.23-3.23h21.53l3.23,3.23-3.23,2.15,2.15,2.16-4.3,26.91Zm-10.22-4.85,2.15-24.22h-4.84v24.22Zm-8.08,0V345.07h-4.84l2.15,24.22Z"/><polygon class="cls-25" points="480.39 439.27 480.39 395.64 803.21 395.64 815.83 395.64 815.93 395.74 861.23 444.12 483.35 448.21 483.35 442.5 480.39 439.54 480.39 439.27"/><polygon class="cls-26" points="480.39 395.64 480.39 439.27 451.86 439.27 451.86 385.98 480.39 385.98 480.39 395.64"/><polygon class="cls-24" points="425.21 449.23 425.21 452.73 414.45 452.73 411.22 452.73 411.22 446.81 425.21 446.81 425.21 449.23"/><polygon class="cls-12" points="416.07 454.34 414.96 464.61 414.62 464.57 414.45 452.73 425.21 452.73 425.21 454.34 416.07 454.34"/><polygon class="cls-12" points="414.96 464.61 414.45 469.41 396.16 469.41 394.05 486.59 393.99 486.59 393.45 464.57 396.15 464.57 414.62 464.57 414.96 464.61"/><polygon class="cls-24" points="414.45 452.73 414.62 464.57 396.15 464.57 396.15 452.73 411.22 452.73 414.45 452.73"/><polygon class="cls-31" points="394.05 486.59 393.45 491.48 351.47 512.61 351.47 504.4 393.99 486.62 394.05 486.59"/><polygon class="cls-30" points="393.99 486.59 393.99 486.62 351.47 504.4 310.02 504.4 362.77 486.64 393.99 486.59"/><polygon class="cls-24" points="393.45 464.57 393.99 486.59 362.77 486.64 362.77 464.57 393.45 464.57"/><polygon class="cls-24" points="351.47 504.4 351.47 512.61 310.02 513.01 310.02 504.4 351.47 504.4"/></g><polygon class="cls-20" points="330.23 512.55 331.57 496.94 309.93 496.87 304.55 515.17 330.23 512.55"/><polygon class="cls-30" points="351.38 512.48 329.28 523.6 330.39 512.48 351.38 512.48"/><polygon class="cls-32" points="159.48 159.91 150.87 164.48 138.49 161.25 124.56 157.41 133.64 153.69 141 156.35 145.09 157.84 142.62 159.58 149.57 162.11 151.81 159.22 159.48 159.91"/><polygon class="cls-33" points="156.52 153.18 151.81 159.22 147.95 158.88 145.09 157.84 151.67 153.18 156.52 153.18"/><polygon class="cls-32" points="151.81 159.22 149.57 162.11 142.62 159.58 145.09 157.84 147.95 158.88 151.81 159.22"/><polygon class="cls-33" points="142.52 148.33 141.45 150.49 135.48 152.93 133.64 153.69 124.56 157.41 114.37 154.61 128.99 152 131.24 151.59 134.45 151.02 142.52 148.33"/><path class="cls-32" d="M129,152l-14.62,2.61-20.9-5.76a1.38,1.38,0,0,1-.17-2.59l5.85-2.54a8.67,8.67,0,0,1,6.12-.32Z"/><polygon class="cls-32" points="124.56 157.41 124.1 157.6 113.91 154.69 114.37 154.61 124.56 157.41"/><path class="cls-34" d="M181.88,389.41l9.69-3.87a3.9,3.9,0,0,1,5.35,3.71l-.17,7.75"/><path class="cls-34" d="M260,388.4l-9.66-3.86a3.89,3.89,0,0,0-5.34,3.7l.16,7.73"/><path class="cls-34" d="M212.5,376.5h0a10,10,0,0,0,8.5-1.05l1.5-.95"/></g></svg>